<svg width="60" height="21" viewBox="0 0 60 21" fill="none" xmlns="http://www.w3.org/2000/svg">
<rect width="15.2812" height="13.892" rx="6.94598" transform="matrix(-1 8.74228e-08 8.74228e-08 1 51.5542 7.08167)" fill="#CFFFFC"/>
<rect width="18.0697" height="18.0697" rx="9.03485" transform="matrix(-1 8.74228e-08 8.74228e-08 1 40.0552 0.699097)" fill="#CFFFFC"/>
<rect width="12.8838" height="12.8838" rx="6.4419" transform="matrix(-1 8.74228e-08 8.74228e-08 1 28.4277 0.639771)" fill="#CFFFFC"/>
<rect width="9.71421" height="9.71421" rx="4.8571" transform="matrix(-1 8.74228e-08 8.74228e-08 1 59.2629 11.2594)" fill="#CFFFFC"/>
<rect width="16.4125" height="16.4256" rx="8.20625" transform="matrix(-1 8.74228e-08 8.74228e-08 1 24.0598 4.54797)" fill="#CFFFFC"/>
<rect width="9.71421" height="9.71421" rx="4.85711" transform="matrix(-1 8.74228e-08 8.74228e-08 1 10.1587 11.2594)" fill="#CFFFFC"/>
<rect width="51.6032" height="7.45005" rx="1.55805" transform="matrix(-1 8.74228e-08 8.74228e-08 1 56.7507 13.5236)" fill="#CFFFFC"/>
</svg>
