<svg width="78" height="27" viewBox="0 0 78 27" fill="none" xmlns="http://www.w3.org/2000/svg">
<rect width="19.9364" height="18.1239" rx="9.06195" transform="matrix(-1 8.74228e-08 8.74228e-08 1 67.5803 8.75037)" fill="#CFFFFC"/>
<rect width="23.5743" height="23.5743" rx="11.7872" transform="matrix(-1 8.74228e-08 8.74228e-08 1 52.5786 0.423401)" fill="#CFFFFC"/>
<rect width="16.8086" height="16.8086" rx="8.40432" transform="matrix(-1 8.74228e-08 8.74228e-08 1 37.4092 0.346069)" fill="#CFFFFC"/>
<rect width="12.6735" height="12.6735" rx="6.33674" transform="matrix(-1 8.74228e-08 8.74228e-08 1 77.6375 14.2008)" fill="#CFFFFC"/>
<rect width="21.4123" height="21.4294" rx="10.7061" transform="matrix(-1 8.74228e-08 8.74228e-08 1 31.71 5.44482)" fill="#CFFFFC"/>
<rect width="12.6735" height="12.6735" rx="6.33674" transform="matrix(-1 8.74228e-08 8.74228e-08 1 13.5745 14.2008)" fill="#CFFFFC"/>
<rect width="67.3233" height="9.71958" rx="2.03268" transform="matrix(-1 8.74228e-08 8.74228e-08 1 74.3601 17.1547)" fill="#CFFFFC"/>
</svg>
