<svg width="281" height="50" viewBox="0 0 281 50" fill="none" xmlns="http://www.w3.org/2000/svg">
<path d="M125.807 43.8183C123.942 43.7588 122.231 42.6276 121.263 40.8619C120.296 39.0963 120.358 37.1242 121.373 35.5413L126.261 27.681C124.74 28.1709 123.16 28.5992 121.642 28.9696C121.157 29.0738 120.734 29.1201 120.252 29.1048C118.387 29.0454 116.612 28.0317 115.642 26.3258C115.298 25.7765 115.077 25.1712 115.037 24.5119L98.9788 31.2986C98.0628 31.6882 97.1526 31.8985 96.2499 31.8697C95.5278 31.8467 94.8095 31.7042 94.157 31.3843C90.6154 32.8867 86.9066 33.965 83.211 34.6249C82.786 34.731 82.3046 34.7157 81.8833 34.7023C80.0179 34.6429 78.4217 33.6947 77.4481 32.1083C76.4765 30.4622 76.4228 28.3668 77.3224 26.6008C71.1379 29.7538 64.6058 32.477 57.85 34.6546C57.3027 34.8167 56.7573 34.9189 56.2157 34.9017C54.2901 34.8403 52.5248 33.5279 51.6209 31.6446C49.1213 32.582 46.509 33.2764 43.9645 33.7338C43.5413 33.7801 43.058 33.8245 42.6368 33.8111C40.8916 33.7555 39.3499 32.9886 38.3707 31.5815L33.2111 34.7073C32.4136 35.1605 31.5014 35.4305 30.5386 35.3999C29.1546 35.3558 27.6692 34.7103 26.6164 33.7196C26.0318 33.1626 25.6334 32.4321 25.3554 31.7053C20.2751 34.2355 14.9693 36.2799 9.56215 37.7228C9.07693 37.827 8.59171 37.9312 8.11029 37.9158C5.88376 37.8449 3.82706 36.2241 3.05692 33.9263C2.33934 31.8696 2.94565 29.855 4.6142 28.5322L5.10894 28.1292C2.80202 26.7995 1.79308 24.4343 2.47669 21.8838C3.02854 19.688 5.49461 17.9121 7.8415 17.9869C8.38309 18.0041 8.86069 18.139 9.3364 18.3336C10.1694 18.6592 11.0042 18.9251 11.7808 19.1293C11.841 19.1312 11.9012 19.1331 11.9594 19.1948L12.0196 19.1967C12.2001 19.2025 12.3807 19.2082 12.5612 19.214C12.8019 19.2216 13.0426 19.2293 13.2833 19.237C13.7045 19.2504 14.0656 19.2619 14.4887 19.2155C14.5489 19.2175 14.7915 19.1654 14.7915 19.1654C15.0341 19.1133 15.3369 19.0631 15.5795 19.011C16.0648 18.9068 16.4898 18.8007 16.9148 18.6946L23.7753 13.2301C24.9491 12.3104 26.3503 11.8166 27.6742 11.8588C28.8175 11.8952 29.9495 12.2902 30.8274 13.0958C31.3556 13.5314 31.8199 14.0846 32.1037 14.632C32.5363 14.2869 32.969 13.9417 33.4035 13.5368C34.5172 12.6151 35.9184 12.1214 37.3024 12.1655C38.4458 12.2019 39.5777 12.5969 40.5158 13.4044C41.4539 14.212 42.0835 15.249 42.3482 16.394L50.1505 11.6176C51.1964 10.933 52.2422 10.2485 53.3444 9.68538C54.2021 9.23413 55.1124 9.02384 56.015 9.05259C57.8805 9.11201 59.6535 10.1854 60.6251 11.8316C60.7378 12.0744 60.8524 12.2575 60.9652 12.5004C61.1533 12.2671 61.3396 12.0936 61.5277 11.8603C61.6519 11.7446 61.7779 11.5692 61.9021 11.4535C61.9021 11.4535 62.0263 11.3378 62.0902 11.2202C63.3471 9.58523 65.0606 8.74249 66.8659 8.8C67.7685 8.82875 68.6636 9.09654 69.4927 9.5417C70.6753 10.2374 71.5399 11.4614 71.9154 12.909C72.291 14.3567 72.0008 15.9028 71.2425 17.0152L70.8003 17.6592C71.1069 17.4895 71.4135 17.3198 71.7182 17.2099C77.2293 14.3943 82.6954 11.0988 87.8721 7.43516C88.6113 6.92032 89.5235 6.65027 90.4863 6.68094C91.9305 6.72694 93.4159 7.37246 94.4686 8.36313C96.1041 9.97057 96.3852 12.492 95.1657 14.846L92.531 20.0263C92.7153 19.9126 92.8977 19.8586 93.0821 19.7448C94.1241 19.1798 95.2263 18.6167 96.212 17.9302C96.7029 17.6467 97.1958 17.3035 97.6265 17.0181C97.8729 16.8465 98.1194 16.6749 98.3037 16.5611L98.3658 16.5033C99.5998 15.5854 100.898 14.55 102.077 13.451L103.691 11.947C104.687 10.9618 106.088 10.468 107.472 10.5121C108.916 10.5581 110.283 11.14 111.336 12.1307C111.804 12.5644 112.148 13.1137 112.43 13.7209L127.512 7.32188C128.428 6.93231 129.338 6.72202 130.301 6.75269C131.986 6.80635 133.407 7.56948 134.389 8.91679C134.793 9.46806 135.076 10.0155 135.238 10.6188C136.414 9.63933 137.591 8.60006 138.773 7.44127C139.768 6.45601 141.109 5.96033 142.613 6.00825C143.817 6.04659 145.007 6.50324 145.947 7.25104C148.002 8.93165 148.508 11.9388 147.11 14.2273L142.094 22.3228L142.707 21.9835C144.882 19.8992 147.581 18.37 150.496 17.6253C150.981 17.5211 151.464 17.4767 151.946 17.492C153.51 17.5419 154.992 18.3069 155.977 19.5347L168.21 13.703C169.066 13.3115 170.036 13.1031 170.939 13.1319C172.624 13.1855 174.104 14.0103 175.145 15.3596C175.318 15.6044 175.491 15.8492 175.602 16.1518L181.318 12.5651C182.055 12.1101 183.028 11.8419 183.991 11.8726C185.375 11.9167 186.802 12.5005 187.854 13.4912C188.686 11.9623 190.522 11.0637 192.508 11.1269C193.23 11.1499 194.008 11.2944 194.601 11.6123C196.917 12.6432 198.627 15.6888 197.524 18.1661L204.007 13.228C205.241 12.3102 206.582 11.8145 207.905 11.8566C209.049 11.8931 210.121 12.2861 211.059 13.0937C212.937 14.649 213.521 17.1203 212.542 19.482L217.831 16.0612C218.631 15.5482 219.543 15.2782 220.506 15.3089C222.371 15.3683 224.144 16.4417 225.178 18.03L235.159 11.0497C235.898 10.5349 236.81 10.2648 237.773 10.2955C239.217 10.3415 240.702 10.987 241.755 11.9777C242.223 12.4113 242.565 13.0204 242.847 13.6276L244.504 12.6635C245.302 12.2103 246.274 11.9422 247.237 11.9728C248.2 12.0035 249.215 12.2751 249.982 12.7781C251.516 13.7841 252.371 15.3069 252.546 17.4062L252.742 20.7026L255.076 19.2814C255.874 18.8282 256.726 18.5563 257.628 18.585C258.711 18.6195 259.843 19.0145 260.904 19.7661C261.022 19.8297 261.199 19.955 261.494 20.1438C261.612 20.2074 261.729 20.3308 261.789 20.3327C261.849 20.3346 262.145 20.5235 262.145 20.5235L262.263 20.5871C262.381 20.6507 262.442 20.6526 262.5 20.7143C262.797 20.8434 263.096 20.9127 263.395 20.9821C263.574 21.0476 263.754 21.0533 263.933 21.1188C263.993 21.1208 263.993 21.1208 264.053 21.1227C264.113 21.1246 264.234 21.1284 264.294 21.1303L264.595 21.1399C264.835 21.1476 265.076 21.1553 265.317 21.1629C265.497 21.1687 265.74 21.1166 265.92 21.1223C265.981 21.1242 265.981 21.1242 266.041 21.1262L266.101 21.1281C266.283 21.0741 266.526 21.022 266.648 20.966C266.891 20.914 267.075 20.8002 267.196 20.804L267.256 20.8059L267.378 20.75C267.622 20.6382 267.807 20.5244 268.051 20.4125C268.174 20.3566 268.236 20.2988 268.358 20.2428C268.42 20.185 268.482 20.1271 268.542 20.1291C268.665 20.0731 268.789 19.9574 268.911 19.9015C269.035 19.7858 269.159 19.6701 269.345 19.4966C269.408 19.4388 269.532 19.3231 269.594 19.2652L269.656 19.2074C270.851 17.6303 272.566 16.7278 274.432 16.7872C275.334 16.816 276.229 17.0837 277.058 17.5289C278.241 18.2246 279.164 19.5102 279.537 21.0177C279.853 22.4634 279.565 23.9498 278.808 25.0024C275.976 28.8006 271.983 31.2457 267.447 31.8191C266.418 31.9658 265.393 31.993 264.431 31.9623C262.084 31.8876 259.872 31.3386 257.793 30.4348L250.483 34.868C249.686 35.3212 248.774 35.5913 247.751 35.5587C246.788 35.528 245.772 35.2564 244.945 34.7515C243.411 33.7455 242.556 32.2227 242.382 30.1234L242.19 26.7075L230.464 33.6322C229.666 34.0853 228.754 34.3554 227.851 34.3266C226.347 34.2787 224.805 33.5118 223.758 32.3418L219.014 35.6603C218.275 36.1752 217.365 36.3855 216.402 36.3548C215.138 36.3145 213.827 35.854 212.948 35.1082C212.361 34.6109 211.84 33.9363 211.502 33.2077L200.306 40.5082C199.567 41.023 198.657 41.2333 197.694 41.2026C196.25 41.1566 194.825 40.513 193.772 39.5224C192.719 38.5317 192.28 37.2016 192.322 35.8869L187.506 39.5621C186.272 40.4799 184.931 40.9756 183.607 40.9334C182.704 40.9047 181.87 40.6388 180.98 40.1917C179.324 39.2416 178.072 36.9286 178.38 34.8446C177.955 34.9507 177.59 35.0587 177.165 35.1648C176.679 35.269 176.196 35.3135 175.715 35.2981C173.669 35.233 171.843 33.9186 170.939 32.0353L159.322 39.3224C158.523 39.8353 157.613 40.0456 156.65 40.015C154.965 39.9613 153.307 39.071 152.325 37.7237C151.519 36.5614 151.2 35.2351 151.362 33.9242L145.795 36.6183C144.939 37.0098 144.029 37.2201 143.126 37.1914C142.103 37.1588 141.15 36.8293 140.324 36.2646L128.542 43.0679C127.682 43.5789 126.77 43.8489 125.807 43.8183Z" fill="white"/>
<path d="M142.701 7.02802C143.724 7.0606 144.678 7.39007 145.499 8.07427C147.201 9.50434 147.664 11.9718 146.458 13.9074C144.11 17.6612 141.821 21.4169 139.475 25.1109C140.765 24.3145 142.054 23.5778 143.344 22.7814C145.395 20.8128 147.972 19.3396 150.766 18.5911C151.191 18.485 151.554 18.4367 151.976 18.4501C153.54 18.5 154.958 19.3826 155.698 20.7223C160.041 18.6472 164.324 16.5702 168.665 14.555C169.399 14.2194 170.189 14.0053 170.971 14.0302C172.295 14.0724 173.6 14.7121 174.466 15.8763C174.87 16.4276 175.094 16.9731 175.197 17.5148C177.411 16.0898 179.623 14.7245 181.837 13.2995C182.512 12.9023 183.24 12.746 183.962 12.769C185.166 12.8073 186.412 13.3854 187.29 14.1911C187.581 14.4994 187.813 14.8059 187.982 15.1702C188.174 14.8174 188.366 14.4646 188.558 14.1118C189.265 12.6986 190.913 12.0333 192.477 12.0831C193.079 12.1023 193.737 12.2429 194.211 12.4972C196.052 13.3335 197.599 15.8355 196.631 17.8386C196.116 18.8989 195.658 20.021 195.143 21.0813C198.229 18.727 201.376 16.3745 204.465 13.9604C205.453 13.2142 206.672 12.7745 207.815 12.8109C208.718 12.8396 209.611 13.1672 210.434 13.7916C212.254 15.2853 212.481 17.6255 211.393 19.6248C210.945 20.448 210.495 21.331 209.987 22.1524C212.754 20.386 215.463 18.558 218.23 16.7917C218.907 16.3347 219.635 16.1784 220.357 16.2014C222.222 16.2609 224.046 17.635 224.713 19.3911C228.287 16.8728 231.921 14.3564 235.497 11.7783C236.114 11.3194 236.842 11.1631 237.564 11.1861C238.828 11.2264 240.134 11.8064 240.952 12.6101C241.535 13.2269 241.99 14.0789 242.142 14.981C243.061 14.4719 243.923 13.9012 244.843 13.3921C245.518 12.9948 246.306 12.8405 247.088 12.8654C247.931 12.8922 248.705 13.1562 249.416 13.5378C250.834 14.4204 251.45 15.8757 251.519 17.4931C251.588 19.1105 251.719 20.67 251.788 22.2874C253.016 21.5488 254.244 20.8102 255.412 20.0698C256.088 19.6725 256.816 19.5163 257.477 19.5373C258.681 19.5757 259.867 20.1519 260.866 20.9613C260.572 20.7127 260.514 20.651 260.514 20.651C260.574 20.6529 261.044 21.0268 261.223 21.0924C261.283 21.0943 261.46 21.2195 261.637 21.3448C261.815 21.4103 262.052 21.5375 262.112 21.5394C262.409 21.6685 262.768 21.7398 263.067 21.8091C263.306 21.8766 263.485 21.9421 263.726 21.9497C263.545 21.944 263.366 21.8785 263.186 21.8727C263.304 21.9363 263.485 21.9421 263.665 21.9478C263.846 21.9536 264.026 21.9593 264.147 21.9632C264.147 21.9632 264.147 21.9632 264.207 21.9651C264.267 21.967 264.388 21.9708 264.448 21.9727C264.688 21.9804 264.929 21.9881 265.23 21.9977C265.471 22.0053 265.653 21.9513 265.894 21.959C265.713 21.9532 265.531 22.0072 265.35 22.0015C265.411 22.0034 265.469 22.0651 265.529 22.067C266.071 22.0843 266.866 21.6908 267.291 21.5847C267.351 21.5867 267.412 21.5886 267.414 21.5288C267.414 21.5288 267.414 21.5288 267.474 21.5307C267.78 21.361 268.085 21.2511 268.392 21.0814C268.698 20.9117 268.945 20.7401 269.251 20.5704C268.945 20.7401 268.822 20.796 268.822 20.796C268.822 20.796 269.191 20.5685 269.375 20.4547C269.624 20.2233 269.872 19.992 270.12 19.7606C270.122 19.7008 270.182 19.7027 270.244 19.6449C271.251 18.3011 272.722 17.5104 274.226 17.5583C274.948 17.5813 275.725 17.7855 276.434 18.2269C278.446 19.3677 279.249 22.504 277.863 24.4339C275.281 27.941 271.47 30.3321 267.117 30.8514C266.148 31.0001 265.183 31.0291 264.281 31.0004C261.934 30.9256 259.662 30.3747 257.588 29.2917C255.01 30.8247 252.429 32.4175 249.85 33.9506C249.175 34.3478 248.387 34.5022 247.605 34.4772C246.762 34.4504 245.927 34.1845 245.277 33.8049C243.859 32.9222 243.243 31.4669 243.174 29.8495C243.105 28.2322 242.976 26.6129 242.907 24.9955C238.549 27.5487 234.251 30.1037 229.892 32.6568C229.217 33.0541 228.489 33.2104 227.767 33.1874C226.203 33.1375 224.667 32.1913 223.806 30.8478C222.019 32.1069 220.172 33.3642 218.383 34.6831C217.768 35.0822 217.04 35.2385 216.318 35.2155C215.234 35.181 214.163 34.7879 213.399 34.1654C212.636 33.5429 212.063 32.6273 211.794 31.6018C207.735 34.2243 203.674 36.9065 199.615 39.529C199 39.9282 198.272 40.0844 197.49 40.0595C196.226 40.0193 194.979 39.4412 194.162 38.6375C192.759 37.2767 192.707 35.1215 193.485 33.4115C191.201 35.1334 188.978 36.8572 186.694 38.5791C185.644 39.3831 184.548 39.767 183.405 39.7305C182.682 39.7075 181.966 39.5053 181.195 39.1218C179.597 38.2334 178.473 35.6851 179.311 33.977C179.441 33.682 179.571 33.387 179.701 33.0921C178.726 33.42 177.752 33.7479 176.78 34.016C176.355 34.1221 175.992 34.1703 175.57 34.1569C173.464 34.0898 171.71 32.4188 171.292 30.4314C167.112 33.05 162.931 35.7284 158.751 38.3471C158.076 38.7443 157.346 38.9604 156.624 38.9373C155.24 38.8933 153.819 38.1301 153.01 37.0276C151.798 35.3738 151.977 33.5251 152.931 31.9403C150.422 33.1765 147.855 34.3509 145.346 35.5871C144.612 35.9226 143.824 36.077 143.102 36.054C142.019 36.0195 141.068 35.6303 140.306 34.948C136.193 37.3893 132.079 39.8305 127.965 42.2718C127.228 42.7269 126.44 42.8813 125.718 42.8583C122.588 42.7586 120.121 38.9113 121.963 35.9191C124.057 32.576 126.091 29.231 128.186 25.8879C125.929 26.7731 123.617 27.4772 121.251 28C120.887 28.108 120.465 28.0946 120.104 28.0831C118.54 28.0333 117.062 27.1487 116.203 25.7455C115.688 24.8916 115.538 23.9297 115.747 23.039C109.947 25.4864 104.206 27.9357 98.4057 30.383C97.612 30.7167 96.824 30.871 96.0417 30.8461C95.3196 30.8231 94.6032 30.6208 93.9526 30.2412C90.3508 31.7416 86.6382 32.9395 82.8223 33.5956C82.4593 33.6438 82.0362 33.6902 81.6751 33.6787C78.3052 33.5714 76.3095 30.0382 77.9166 26.859C78.3645 26.0358 78.7522 25.2106 79.2001 24.3874C72.2144 28.1131 64.8866 31.2297 57.339 33.6812C56.9121 33.8471 56.4287 33.8915 56.0075 33.8781C54.0819 33.8168 52.4464 32.2093 51.9638 30.3395C49.2799 31.3906 46.4832 32.1988 43.5757 32.7044C43.2127 32.7527 42.7896 32.799 42.4285 32.7875C41.0445 32.7435 39.7377 32.1634 38.8731 30.9395C38.7002 30.6947 38.5875 30.4518 38.4747 30.2089C36.5091 31.4026 34.5435 32.5962 32.5158 33.8477C31.8405 34.2449 31.1127 34.4012 30.3906 34.3782C29.187 34.3399 27.9385 33.8215 27.1227 32.9581C26.3633 32.216 25.9744 31.1867 25.9466 30.1688C20.6781 32.9323 15.0657 35.1463 9.23356 36.6954C8.80852 36.8015 8.44555 36.8497 8.08449 36.8382C4.47389 36.7232 1.86566 31.6152 5.0786 29.0854C5.63542 28.6246 6.19033 28.2235 6.74715 27.7627C6.68507 27.8205 6.50644 27.755 6.38799 27.6914C4.06966 26.7202 2.75031 24.6443 3.43393 22.0938C3.91417 20.2546 5.94759 18.8239 7.87324 18.8852C8.29448 18.8986 8.65363 18.9699 9.06916 19.1626C9.90211 19.4882 10.7952 19.8158 11.6339 19.9621C11.7543 19.9659 11.8125 20.0276 11.8727 20.0295C11.9329 20.0315 11.9329 20.0315 11.9931 20.0334C12.4143 20.0468 12.8336 20.12 13.2549 20.1334C13.6761 20.1468 14.0973 20.1602 14.5205 20.1139C14.6408 20.1177 14.7612 20.1215 14.8835 20.0656L14.9436 20.0675C15.7316 19.9132 16.5798 19.7607 17.3697 19.5466C19.7174 17.7071 22.065 15.8676 24.4145 13.9683C25.404 13.1624 26.5607 12.7805 27.704 12.8169C28.6067 12.8456 29.4998 13.1732 30.3232 13.7976C31.0865 14.4201 31.6033 15.2143 31.8155 16.1184C32.4946 15.6016 33.2376 14.9672 34.1029 14.2769C35.0924 13.471 36.2491 13.0891 37.3925 13.1255C38.3553 13.1561 39.2484 13.4837 40.0699 14.1679C41.3032 15.1643 41.7991 16.6158 41.6331 18.0462C44.6426 16.2278 47.7143 14.3516 50.7239 12.5331C51.7095 11.8467 52.7535 11.2219 53.8576 10.599C54.593 10.2037 55.3209 10.0474 56.1032 10.0724C57.6677 10.1222 59.1455 11.0068 60.0044 12.41C60.4047 13.0808 60.5624 13.8037 60.5395 14.5208C60.7878 14.2894 60.976 14.0561 61.2243 13.8247C61.5987 13.4179 61.9731 13.0111 62.3475 12.6043C62.4735 12.4288 62.5977 12.3131 62.7238 12.1377C62.7257 12.0779 62.8479 12.022 62.9138 11.8446C63.9806 10.5027 65.3913 9.71017 66.8957 9.75808C67.6178 9.78108 68.3944 9.98528 69.1032 10.4266C71.1751 11.5694 71.8603 14.6421 70.5319 16.6337C69.7736 17.7461 69.0134 18.9183 68.195 20.0289C69.4796 19.4118 70.8245 18.7966 72.1712 18.1216C77.8045 15.2502 83.2706 11.9546 88.3871 8.28906C89.0041 7.83015 89.7319 7.67387 90.4541 7.69687C91.7178 7.73712 93.0245 8.31713 93.8423 9.12085C95.3612 10.6049 95.2907 12.8161 94.3912 14.5821C93.1077 17.0537 91.8223 19.585 90.5388 22.0566C91.5169 21.6092 92.4949 21.1618 93.4749 20.6546C94.5771 20.0915 95.621 19.4667 96.665 18.842C97.1559 18.5585 97.6488 18.2153 98.1397 17.9318C98.3861 17.7602 98.6325 17.5886 98.8789 17.4169C98.8789 17.4169 98.8789 17.4169 98.9391 17.4189L99.0012 17.361C100.297 16.3853 101.595 15.3499 102.775 14.2509C103.333 13.7303 103.832 13.2078 104.391 12.6872C105.262 11.8176 106.417 11.4955 107.56 11.5319C108.763 11.5702 109.893 12.025 110.769 12.8903C111.412 13.509 111.751 14.2377 111.904 15.0801C117.278 12.7986 122.591 10.5151 127.963 8.29339C128.757 7.95974 129.545 7.80538 130.327 7.8303C131.651 7.87246 132.837 8.44864 133.764 9.61476C134.458 10.5342 134.668 11.498 134.577 12.4522C134.7 12.3963 134.762 12.3385 134.886 12.2228C136.49 11.0177 138.04 9.63132 139.472 8.1814C140.401 7.3735 141.558 6.9916 142.701 7.02802ZM142.759 5.2352C141.013 5.17962 139.428 5.78715 138.246 6.94594C137.438 7.75767 136.57 8.50772 135.763 9.25969C135.651 9.01681 135.478 8.77202 135.305 8.52723C134.151 6.93512 132.432 6.04289 130.507 5.98156C129.484 5.94897 128.393 6.15351 127.355 6.59901L120.576 9.4938L113.006 12.6625C112.776 12.2962 112.487 11.9281 112.135 11.6178C110.908 10.4421 109.362 9.79465 107.677 9.74098C105.992 9.68731 104.407 10.2948 103.227 11.3939L102.42 12.1458L101.613 12.8978C100.434 13.9968 99.1977 14.9744 97.9637 15.8923L97.9016 15.9501C97.6552 16.1217 97.4689 16.2953 97.2244 16.4071C96.7937 16.6925 96.3008 17.0357 95.8099 17.3192C95.4412 17.5467 95.1327 17.7762 94.766 17.944L96.0533 15.3528C97.4647 12.646 97.0766 9.70244 95.1498 7.78661C93.9824 6.61283 92.198 5.89796 90.5732 5.84621C89.3697 5.80788 88.2751 6.13194 87.4117 6.76247C82.7279 10.0829 77.873 13.0988 72.851 15.6906C73.062 14.7402 73.0943 13.7242 72.8239 12.7585C72.3958 11.0699 71.4166 9.6628 69.9971 8.83991C68.9912 8.26948 67.9758 7.99786 66.9528 7.96527C64.8466 7.89819 62.9488 8.85469 61.4436 10.721C61.3797 10.8386 61.3176 10.8965 61.2555 10.9543L61.1934 11.0122C59.9811 9.35838 58.0878 8.28112 56.0418 8.21595C54.9586 8.18145 53.8659 8.44575 52.886 8.95292C51.7838 9.51603 50.7379 10.2006 49.63 10.943L42.8114 15.0927C42.4187 14.1829 41.8417 13.3868 41.0183 12.7624C39.9618 11.8912 38.6531 11.371 37.269 11.3269C35.6443 11.2752 34.0606 11.8229 32.7608 12.9181C32.5745 13.0917 32.3902 13.2054 32.2039 13.379C31.9145 13.0108 31.6231 12.7024 31.2697 12.4519C30.2131 11.5807 28.9045 11.0605 27.5204 11.0164C25.9558 10.9666 24.3722 11.5143 23.014 12.5479L19.4926 15.3071L16.2797 17.8369C15.9148 17.9449 15.5518 17.9932 15.1268 18.0993C14.8842 18.1514 14.6416 18.2035 14.399 18.2556L14.3388 18.2536C14.2786 18.2517 14.2184 18.2498 14.1583 18.2479C13.7972 18.2364 13.4342 18.2846 13.013 18.2712C12.7723 18.2636 12.5918 18.2578 12.3511 18.2501C12.1705 18.2444 11.99 18.2386 11.8095 18.2329C11.7493 18.231 11.7493 18.231 11.6891 18.2291C10.9708 18.0865 10.1961 17.8226 9.42334 17.4989C8.82919 17.2407 8.22932 17.1617 7.62756 17.1426C4.85943 17.0544 2.02278 19.1176 1.33916 21.6681C0.657452 24.1589 1.48396 26.5781 3.36013 28.1932C2.04693 29.7067 1.49318 31.9623 2.26522 34.2002C3.1462 36.8006 5.55444 38.7317 8.14203 38.8142C8.68362 38.8314 9.28729 38.7908 9.83459 38.6288C14.9991 37.2379 20.1187 35.3671 24.9526 33.0086C25.2363 33.556 25.5821 34.0456 26.0502 34.4792C27.2778 35.6549 28.8816 36.3641 30.5665 36.4177C31.7099 36.4541 32.8026 36.1898 33.7243 35.621L36.6737 33.8007L38.2085 32.8924C39.3759 34.0662 40.8594 34.7715 42.6045 34.8271C43.0859 34.8424 43.6294 34.7999 44.1146 34.6957C46.4768 34.2924 48.9067 33.6519 51.2219 32.8283C52.3101 34.5978 54.1996 35.7946 56.1854 35.8579C56.8473 35.8789 57.5131 35.7805 58.1225 35.5606C64.2087 33.6009 70.1296 31.1574 75.8193 28.4074C75.5911 29.8956 75.9065 31.3414 76.6488 32.6213C77.7351 34.4505 79.6867 35.5894 81.853 35.6584C82.3344 35.6738 82.8779 35.6313 83.3631 35.5271C86.9985 34.8652 90.6472 33.785 94.1267 32.3405C94.781 32.6006 95.4392 32.7412 96.2215 32.7661C97.2445 32.7987 98.3353 32.5942 99.3735 32.1487L114.396 25.7477C114.505 26.1101 114.676 26.4147 114.905 26.7809C116.048 28.7316 118.058 29.9322 120.284 30.0031C120.826 30.0204 121.369 29.9779 121.915 29.8756C122.703 29.7212 123.492 29.5071 124.343 29.2949L122.818 31.7588L120.724 35.1019C119.58 36.9798 119.506 39.3104 120.586 41.3189C121.725 43.3891 123.731 44.7093 125.897 44.7783C127.041 44.8147 128.134 44.5504 129.117 43.9237L133.231 41.4824L140.476 37.1668C141.306 37.6119 142.321 37.8836 143.284 37.9142C144.307 37.9468 145.337 37.7404 146.378 37.2351L150.169 35.4416L150.658 35.2179C150.746 36.2377 151.137 37.2072 151.831 38.1266C152.985 39.7188 154.88 40.7363 156.866 40.7995C158.009 40.8359 159.102 40.5716 160.026 39.943L170.783 33.1669C171.933 34.8786 173.764 36.0137 175.81 36.0788C176.352 36.0961 176.956 36.0555 177.503 35.8935C177.679 37.933 178.942 39.8875 180.538 40.8357C181.484 41.4042 182.499 41.6758 183.582 41.7103C185.147 41.7601 186.67 41.2104 188.029 40.1769L191.608 37.4794C191.879 38.4451 192.392 39.3588 193.151 40.1008C194.379 41.2765 196.043 41.9875 197.668 42.0393C198.811 42.0757 199.906 41.7516 200.827 41.1828L211.284 34.3971C211.63 34.8867 212.037 35.3185 212.447 35.6904C213.504 36.5616 215.051 37.1493 216.435 37.1934C217.639 37.2317 218.734 36.9076 219.597 36.2771L223.231 33.7607L223.724 33.4175C224.895 34.4718 226.38 35.1173 227.885 35.1652C228.968 35.1997 230.061 34.9354 230.982 34.3666L237.491 30.506L241.42 28.1785L241.545 29.9173C241.691 32.913 243.266 34.5185 244.507 35.2759C245.453 35.8444 246.587 36.1796 247.73 36.216C248.933 36.2544 250.026 35.9901 250.948 35.4212L257.336 31.5569L257.889 31.2155C259.968 32.1193 262.121 32.6066 264.408 32.6794C265.431 32.712 266.516 32.6868 267.545 32.5401C272.323 31.9146 276.559 29.4174 279.519 25.384C280.463 24.098 280.82 22.3746 280.391 20.6859C280.027 18.8797 278.93 17.409 277.51 16.5862C276.504 16.0157 275.489 15.7441 274.466 15.7115C272.3 15.6425 270.34 16.6569 268.955 18.527C268.893 18.5849 268.831 18.6427 268.769 18.7006C268.644 18.8163 268.52 18.9319 268.456 19.0495C268.394 19.1074 268.332 19.1652 268.21 19.2212C268.148 19.279 268.026 19.3349 267.963 19.3928C267.901 19.4506 267.841 19.4487 267.779 19.5065C267.595 19.6203 267.35 19.7322 267.168 19.7862L267.108 19.7843C266.925 19.8383 266.683 19.8904 266.498 20.0041C266.376 20.0601 266.254 20.116 266.133 20.1122C266.073 20.1102 266.013 20.1083 266.013 20.1083C265.833 20.1026 265.65 20.1566 265.409 20.1489C265.169 20.1413 264.988 20.1355 264.747 20.1278C264.687 20.1259 264.627 20.124 264.507 20.1202L264.447 20.1182C264.386 20.1163 264.266 20.1125 264.146 20.1087C264.025 20.1048 263.847 20.0393 263.726 20.0355C263.488 19.9681 263.189 19.8987 262.952 19.7715C262.891 19.7696 262.833 19.7079 262.773 19.706L262.715 19.6443L262.656 19.5827C262.538 19.5191 262.48 19.4574 262.42 19.4555C262.359 19.4536 262.301 19.3919 262.185 19.2685C261.95 19.0816 261.713 18.9544 261.536 18.8291C260.355 18.0737 259.045 17.6132 257.841 17.5748C256.758 17.5403 255.725 17.8066 254.744 18.3735L253.7 18.9983L253.576 17.1997C253.431 14.204 251.855 12.5985 250.615 11.8411C249.669 11.2726 248.535 10.9374 247.392 10.901C246.248 10.8646 245.095 11.1269 244.174 11.6958L243.314 12.2068C243.085 11.8406 242.795 11.4724 242.504 11.164C241.337 9.99025 239.552 9.27539 237.928 9.22364C236.724 9.1853 235.629 9.50936 234.766 10.1399L229.9 13.5143L225.524 16.6053C224.304 15.1906 222.528 14.2367 220.722 14.1792C219.579 14.1427 218.484 14.4668 217.563 15.0357L214.179 17.2609C214.3 15.3505 213.516 13.4711 211.871 12.1624C210.815 11.2913 209.506 10.771 208.182 10.7289C206.618 10.679 205.094 11.2287 203.676 12.2603L198.985 15.8198C198.814 13.601 197.196 11.4557 195.237 10.5558C194.524 10.234 193.627 10.026 192.785 9.99914C190.859 9.93781 189.029 10.6572 187.904 11.9374C186.844 11.1858 185.533 10.7253 184.269 10.685C183.126 10.6486 182.033 10.9129 181.11 11.5415L177.79 13.6492L176.191 14.675L176.133 14.6134C174.979 13.0212 173.202 12.0673 171.276 12.006C170.193 11.9715 169.102 12.176 168.122 12.6832L156.5 18.2353C155.391 17.1232 153.846 16.4758 152.281 16.4259C151.74 16.4087 151.136 16.4493 150.589 16.6113C148.828 17.0338 147.179 17.759 145.644 18.6672L148.184 14.5606C149.834 11.9213 149.223 8.43215 146.816 6.44123C145.572 5.80337 144.203 5.2812 142.759 5.2352Z" fill="black"/>
</svg>
