<svg width="288" height="36" viewBox="0 0 288 36" fill="none" xmlns="http://www.w3.org/2000/svg">
<path d="M37.6234 34.457C35.193 34.457 32.9496 33.1684 31.6409 31.0421C31.3916 30.6555 31.2047 30.2689 31.08 29.8179C30.0206 30.4622 28.8366 31.0421 27.4656 31.2998C26.7178 31.4287 26.0323 31.4931 25.4714 31.4931C24.0381 31.4931 22.7917 31.171 21.67 30.4622C20.1121 29.4957 19.0527 27.8205 18.6788 25.9519C15.8121 28.1426 12.8209 30.3978 9.64268 32.2019C8.77023 32.7173 7.83546 32.9751 6.83837 32.9751C4.90652 32.9751 3.0993 31.9441 1.97758 30.14C1.22977 28.9158 0.980495 27.305 1.3544 25.7586C1.79063 24.1478 2.78771 22.8592 4.03407 22.1504C5.59202 21.3128 7.02533 20.2174 8.45864 19.1865L8.77023 18.9932C11.7615 16.867 14.6904 14.6118 17.557 12.4856C19.4266 11.068 21.2338 9.71496 23.1033 8.36188L23.6642 7.97528C25.2221 6.8155 26.8424 5.59129 29.0235 5.52685L29.2105 5.52685C32.2641 5.52685 35.0061 7.65312 35.8785 10.6814C36.0031 11.1969 36.1278 11.7124 36.1278 12.2923L37.1872 11.5191C38.9944 10.2304 40.6147 9.1995 42.7335 9.1995C43.2943 9.1995 43.8552 9.26393 44.4161 9.45723C47.0334 10.166 49.0276 12.4856 49.5261 15.1273C53.8261 12.099 58.0013 8.87734 62.6129 5.39799C62.7998 5.26912 62.9868 5.07583 63.2361 4.94696C64.5447 3.91604 65.9157 2.82069 67.7853 2.56296C68.0968 2.49853 68.4084 2.49853 68.72 2.49853C71.2751 2.49853 73.5808 3.91604 74.8272 6.23561C75.6373 7.71755 75.8866 9.58609 75.5127 11.7768C77.0706 10.7459 78.6909 9.71496 80.1865 8.61961C80.4358 8.42631 80.6851 8.23301 80.9343 8.03972C82.4923 6.87993 84.1125 5.72015 86.2937 5.72015L86.4806 5.72015C89.8458 5.78458 92.7124 8.42631 93.2109 11.9057C94.6443 11.1969 96.0776 10.4881 97.5109 9.71496C99.0688 8.94177 100.689 8.10415 102.247 7.33096C104.054 6.42891 105.737 5.65572 107.232 4.88253C107.544 4.68923 107.918 4.56037 108.23 4.36707C109.912 3.52945 111.595 2.69183 113.527 2.69183C114.025 2.69183 114.524 2.75626 114.96 2.88512C117.39 3.46502 119.26 5.33356 120.07 7.65312C122.251 5.84902 124.868 3.98048 127.61 3.98048C129.231 3.98048 130.664 4.6248 131.973 5.91345C134.341 8.23301 134.465 10.8747 133.842 13.452C134.59 12.9366 135.4 12.3567 136.273 11.7768L136.833 11.3902C139.575 9.52166 142.38 7.52426 145.309 5.84901C145.558 5.72015 145.807 5.52685 146.056 5.39799C147.864 4.30264 149.858 3.07842 152.039 3.07842L152.164 3.07842C155.28 3.14285 158.084 5.39799 158.832 8.49074C158.832 8.61961 158.894 8.68404 158.894 8.81291C159.642 8.36188 160.327 7.91085 161.075 7.45982C163.381 5.97788 165.749 4.49593 168.242 3.40058C169.176 3.01399 170.111 2.82069 171.046 2.82069C173.601 2.82069 175.907 4.30264 177.153 6.68664C178.026 8.42631 178.213 10.3593 177.652 12.1634C178.213 11.9057 178.773 11.5835 179.334 11.3258C180.768 10.5526 182.201 9.71496 183.447 8.87734C184.195 8.42631 184.881 7.91085 185.566 7.45982C185.753 7.33096 186.002 7.13766 186.189 6.94437L186.252 6.87993C186.252 6.87993 186.438 6.68664 186.625 6.55777L186.812 6.36447C187.872 5.46242 188.931 4.4315 189.866 3.40058C190.863 2.30523 192.234 1.72534 193.73 1.72534C195.225 1.72534 196.721 2.30523 197.78 3.33615C200.211 5.65572 199.712 9.3928 197.843 11.5191C197.78 11.5835 197.78 11.5835 197.718 11.6479C198.404 11.2613 199.089 10.9392 199.837 10.7459C200.46 10.5526 201.083 10.4881 201.706 10.4881C204.074 10.4881 206.38 11.8412 207.689 13.9031C208.374 13.6453 209.06 13.3876 209.683 13.1299C209.745 13.1299 209.932 13.0654 210.119 12.9366C210.493 12.7433 210.742 12.6789 210.867 12.6144C211.241 12.4211 211.615 12.2923 211.989 12.099C212.986 11.6479 213.983 11.1325 214.918 10.617C216.6 9.71496 218.221 8.74847 219.779 7.71755C220.215 7.45983 220.589 7.13766 221.025 6.8155C222.521 5.72015 224.265 4.4315 226.447 4.36707L226.634 4.36707C230.373 4.36707 233.551 7.52426 233.613 11.4546C233.613 11.5835 233.613 11.7124 233.613 11.7768C235.545 10.6814 237.477 9.45723 239.346 8.10415C239.783 7.78199 240.156 7.45982 240.593 7.13766C242.213 5.84901 244.02 4.4315 246.326 4.36707C246.388 4.36707 246.451 4.36707 246.513 4.36707C249.566 4.36707 252.371 6.49334 253.243 9.52166C254.863 8.42631 256.608 7.2021 258.353 6.04231C260.223 4.8181 261.843 4.17377 263.401 4.17377C264.46 4.17377 265.52 4.4315 266.517 5.01139C268.013 5.84902 269.134 7.2021 269.695 8.81291C270.381 8.55518 271.004 8.42631 271.689 8.36188C271.752 8.36188 271.876 8.36188 271.939 8.36188C273.185 8.36188 274.307 8.68404 275.428 9.26393C277.111 10.166 277.859 11.6479 278.544 13.0654C278.731 13.452 278.918 13.7742 279.105 14.1608C279.417 14.7407 279.791 15.3206 280.165 15.9005L280.476 16.3515L280.725 16.6737C280.85 16.867 280.975 16.9958 281.162 17.1891C281.224 17.2535 281.286 17.318 281.349 17.4468C282.782 17.8334 284.028 18.7999 284.838 20.0886C286.646 22.988 285.212 26.4674 282.907 28.0138C281.972 28.6581 280.975 28.9158 279.791 28.9158C278.544 28.9158 277.173 28.5292 275.989 27.8205C274.182 26.7251 272.437 24.921 270.755 22.2793C270.131 22.7947 269.508 23.3102 268.885 23.8257C268.573 24.0834 268.262 24.3411 267.95 24.5988C266.704 25.6298 265.395 26.7251 263.962 27.4983C262.84 28.0138 261.781 28.3359 260.721 28.3359C259.724 28.3359 258.79 28.0782 257.917 27.5627C256.11 26.4674 255.05 24.4055 255.113 22.1504L251.436 24.6633C251 24.9854 250.564 25.3076 250.065 25.6298C248.943 26.403 247.822 27.2406 246.638 27.8849C245.64 28.4004 244.519 28.6581 243.397 28.6581C240.842 28.6581 238.599 27.305 237.352 25.0499C237.041 24.47 236.791 23.8257 236.604 23.1813C235.857 23.5679 235.109 23.8901 234.361 24.2123L233.738 24.47C231.245 25.6298 228.067 26.9828 225.138 26.9828C222.458 26.9828 220.464 25.8231 219.155 23.5035C218.844 22.9236 218.595 22.2148 218.408 21.5705C214.295 23.6324 210.244 25.2432 206.256 26.3385C205.321 26.5962 204.448 26.7251 203.576 26.7251C201.395 26.7251 199.588 25.8875 198.279 24.4055C196.222 25.372 194.477 26.1452 192.795 26.7251C191.985 26.9828 191.175 27.1761 190.365 27.1761C187.249 27.1761 184.569 25.1787 183.634 22.086C183.634 22.0215 183.572 21.9571 183.572 21.8927C179.459 24.019 175.097 25.6942 170.485 26.9828C169.239 27.305 167.868 27.6272 166.559 27.6272C165.313 27.6272 164.253 27.3694 163.194 26.7895C161.324 25.6942 160.078 23.6968 159.766 21.5705C158.271 22.4726 156.962 23.1813 155.778 23.8901C154.282 24.7277 152.538 25.5653 150.668 25.5653C149.484 25.5653 148.3 25.1787 147.178 24.47C145.62 23.5035 144.561 21.8927 144.187 20.0886C143.501 20.5396 142.878 20.9906 142.193 21.4417C139.326 23.3746 136.397 25.4365 133.406 27.1761L132.72 27.5627C131.038 28.5292 129.355 29.5601 127.486 30.14C126.8 30.3333 126.115 30.4622 125.429 30.4622C122.937 30.4622 120.631 29.1091 119.384 26.9184C118.824 25.9519 118.512 24.8566 118.512 23.6324C118.076 24.019 117.702 24.3411 117.266 24.6633C117.016 24.8566 116.767 25.1143 116.456 25.3076C114.773 26.7251 112.841 28.3359 110.348 28.4648L110.161 28.4648C107.108 28.4648 104.366 26.403 103.493 23.3746C103.057 21.8927 103.182 20.604 103.493 19.3798L102.995 19.6375C101.437 20.4107 99.879 21.1839 98.321 21.9571C96.3268 22.9236 94.5196 23.8257 92.8994 24.5988C92.4631 24.7921 92.0892 24.9854 91.653 25.2432C90.0327 26.0808 88.1632 27.0473 86.2313 27.0473L86.1067 27.0473C83.3024 26.9828 80.8097 25.1143 79.8126 22.4081C77.0083 24.1478 74.1417 25.8231 71.2751 27.305C71.0258 27.4339 70.8388 27.5627 70.5896 27.6916C68.907 28.5937 67.0998 29.4957 65.0433 29.4957C64.7317 29.4957 64.4201 29.4957 64.1085 29.4313C61.3665 29.0447 59.0608 26.854 58.3753 24.019C58.2506 23.5679 58.1883 23.1813 58.1883 22.7303C53.7637 25.9519 49.0276 29.238 43.9175 31.9441C43.6682 32.073 43.419 32.2019 43.1697 32.3307C41.7987 33.0395 40.4277 33.8127 38.9944 34.2637C38.8698 34.3926 38.2466 34.457 37.6234 34.457Z" fill="white"/>
<path d="M193.854 2.4984C195.101 2.4984 196.347 3.01386 197.282 3.91591C199.214 5.72002 198.902 8.87721 197.282 10.7457C197.033 11.0035 196.908 11.1968 196.908 11.1968C196.783 11.3901 196.659 11.5834 196.534 11.7767C196.347 12.0344 196.222 12.3566 196.036 12.6787C196.036 12.6787 195.724 13.5808 195.662 13.7741C195.662 13.8385 195.599 13.9029 195.599 14.0318C197.095 13.1297 198.591 12.0988 200.211 11.5834C200.772 11.3901 201.27 11.3256 201.831 11.3256C204.137 11.3256 206.38 12.7432 207.377 14.9339C208.312 14.6117 209.247 14.2895 210.182 13.9029C210.306 13.8385 211.428 13.3875 211.428 13.3875C211.802 13.1942 212.176 13.0653 212.55 12.872C213.547 12.421 214.544 11.9055 215.541 11.3256C217.224 10.4236 218.844 9.4571 220.464 8.36175C222.396 7.0731 224.203 5.26899 226.634 5.20456C226.696 5.20456 226.758 5.20456 226.758 5.20456C229.999 5.20456 232.741 8.03959 232.803 11.3256C232.803 12.0344 232.678 12.7432 232.491 13.4519C235.109 12.0988 237.602 10.488 240.032 8.74834C242.026 7.33083 243.958 5.26899 246.513 5.20456C246.575 5.20456 246.638 5.20456 246.7 5.20456C249.38 5.20456 251.81 7.0731 252.558 9.77926C252.682 10.2303 252.745 10.6169 252.745 11.0035C254.801 9.58597 256.92 8.10402 259.039 6.68651C260.472 5.72002 261.968 5.01127 263.588 5.01127C264.461 5.01127 265.333 5.20456 266.205 5.72002C267.826 6.62208 268.885 8.23289 269.259 10.037C270.007 9.58597 270.879 9.2638 271.876 9.19937C271.939 9.19937 272.001 9.19937 272.063 9.19937C273.123 9.19937 274.182 9.4571 275.117 9.97256C276.924 10.939 277.485 12.8076 278.42 14.4828C278.856 15.256 279.292 15.9003 279.791 16.6735C279.853 16.738 279.853 16.738 279.853 16.8024L279.915 16.8668C280.102 17.1246 280.352 17.3823 280.539 17.64C280.601 17.7044 280.788 17.8977 280.912 18.1555C282.221 18.4132 283.405 19.3153 284.153 20.475C285.586 22.7302 284.527 25.6941 282.47 27.1116C281.66 27.627 280.788 27.8848 279.853 27.8848C278.669 27.8848 277.547 27.4982 276.55 26.9183C274.307 25.5652 272.5 23.1812 271.066 20.7972C270.194 21.5704 269.321 22.2792 268.387 23.0523C266.891 24.2766 265.395 25.7585 263.65 26.5961C262.716 27.0471 261.781 27.3049 260.846 27.3049C260.036 27.3049 259.226 27.1116 258.478 26.6606C256.733 25.6296 255.923 23.5678 256.172 21.5704C256.235 21.0549 256.359 20.5395 256.546 20.024C256.297 20.2173 256.048 20.3462 255.798 20.5395C254.178 21.6348 252.62 22.7946 251 23.89C249.504 24.9209 247.946 26.2095 246.326 27.0471C245.454 27.4982 244.456 27.7559 243.522 27.7559C241.403 27.7559 239.409 26.6606 238.287 24.6632C237.726 23.6967 237.539 22.7302 237.539 21.7637C236.418 22.3436 235.296 22.9235 234.174 23.4389C231.681 24.5343 228.316 26.1451 225.387 26.1451C223.331 26.1451 221.461 25.3719 220.215 23.1168C219.716 22.2147 219.467 21.1838 219.405 20.1529C219.031 20.3462 218.595 20.6039 218.221 20.7972C214.357 22.7302 210.369 24.341 206.193 25.5008C205.383 25.7585 204.573 25.8874 203.763 25.8874C201.769 25.8874 199.962 25.1142 198.715 23.3101C196.783 24.2766 194.727 25.1786 192.67 25.8874C191.985 26.1451 191.237 26.274 190.552 26.274C187.934 26.274 185.566 24.6631 184.694 21.8926C184.569 21.4415 184.507 20.9905 184.444 20.475C180.02 22.9235 175.221 24.792 170.423 26.0807C169.177 26.4028 167.992 26.725 166.746 26.725C165.749 26.725 164.814 26.5317 163.88 25.9518C161.823 24.7276 160.639 22.2792 160.888 19.8952C159.143 20.9261 157.336 22.0214 155.591 22.9879C154.033 23.8255 152.538 24.5343 150.98 24.5343C149.983 24.5343 148.986 24.2766 147.988 23.6322C146.181 22.4724 145.246 20.475 145.184 18.4132C141.196 21.1194 137.332 23.9544 133.219 26.3384C131.412 27.3693 129.48 28.658 127.486 29.2379C126.925 29.4311 126.302 29.4956 125.679 29.4956C123.56 29.4956 121.566 28.4002 120.444 26.4673C119.572 24.9209 119.509 23.1812 119.883 21.4415C118.886 22.2792 117.889 23.1168 116.892 23.9544C115.022 25.5008 113.09 27.4337 110.598 27.5626C110.535 27.5626 110.473 27.5626 110.411 27.5626C107.793 27.5626 105.425 25.7585 104.615 23.1812C103.992 21.0549 104.678 19.2508 105.55 17.4467C103.057 18.6709 100.627 19.8952 98.1342 21.1194C96.3269 22.0214 94.5197 22.9235 92.7125 23.7611C90.7807 24.6631 88.5995 26.1451 86.4184 26.1451C86.3561 26.1451 86.3561 26.1451 86.2938 26.1451C83.4271 26.0807 81.0591 23.89 80.4982 20.9905C77.3823 22.9879 74.2664 24.792 70.9636 26.4673C69.094 27.4337 67.2245 28.5291 65.168 28.5291C64.9187 28.5291 64.6695 28.5291 64.3579 28.4647C61.9275 28.1425 59.9956 26.2095 59.4348 23.7611C59.1855 22.7302 59.2478 21.6348 59.4971 20.6683C54.6986 24.4054 49.5262 28.0781 43.9799 31.042C42.4843 31.8151 40.864 32.8461 39.2438 33.2971C38.7452 33.426 38.1844 33.4904 37.6235 33.4904C35.567 33.4904 33.5728 32.395 32.4511 30.5265C32.0149 29.8177 31.7656 29.0446 31.641 28.2714C30.27 29.2379 28.9613 30.011 27.2787 30.3332C26.6556 30.4621 26.0324 30.5265 25.4092 30.5265C24.2875 30.5265 23.1658 30.2688 22.1064 29.6244C20.3615 28.5291 19.4267 26.5317 19.4267 24.4699C19.4267 24.341 19.4267 24.2121 19.4267 24.1477C16.1238 26.725 12.7587 29.3023 9.14425 31.3641C8.39643 31.8151 7.5863 32.0084 6.83848 32.0084C5.21822 32.0084 3.72259 31.1708 2.78782 29.6244C1.47915 27.4982 2.28928 24.2121 4.47041 22.9879C6.15299 22.0214 7.71093 20.9261 9.26888 19.7663C14.1297 16.2869 18.8658 12.6143 23.6643 9.07051C25.3469 7.84629 26.9048 6.49321 29.0236 6.42878C29.086 6.42878 29.1483 6.42878 29.1483 6.42878C31.7656 6.42878 34.196 8.29732 34.9438 10.939C35.2554 12.0988 35.1931 13.1942 34.9438 14.2895C35.8786 13.6452 36.8134 13.0009 37.6858 12.3566C39.2438 11.2612 40.8017 10.1659 42.6713 10.1659C43.1075 10.1659 43.606 10.2303 44.1046 10.3592C46.7219 11.0679 48.6538 13.5808 48.6538 16.4158C48.6538 16.5447 48.6538 16.738 48.6538 16.8668C53.5769 13.4519 58.3754 9.8437 63.1738 6.17105C64.6695 5.01127 65.9781 3.78705 67.91 3.52932C68.1593 3.46489 68.4709 3.46489 68.7201 3.46489C70.9013 3.46489 72.8954 4.6891 74.0171 6.75094C75.1389 8.74835 74.8273 11.3901 74.0795 13.8385C74.6403 13.5163 75.1389 13.1942 75.6997 12.8076C77.3823 11.7122 79.0649 10.5525 80.7475 9.39267C82.4924 8.10402 84.1126 6.62208 86.3561 6.68651C86.4184 6.68651 86.4184 6.68651 86.4807 6.68651C89.4097 6.75094 91.9024 9.07051 92.3386 12.0988C92.4009 12.5499 92.4009 13.0009 92.3386 13.3875C92.4632 13.323 92.5879 13.2586 92.7748 13.1942C96.0777 11.5834 99.3805 9.8437 102.746 8.23289C104.428 7.39526 106.049 6.62208 107.731 5.78445C109.601 4.8824 111.532 3.65819 113.651 3.65819C114.025 3.65819 114.461 3.72262 114.898 3.78705C117.453 4.43137 119.385 6.68651 119.572 9.39267C121.877 7.4597 124.806 4.94683 127.735 4.94683C128.982 4.94683 130.228 5.39786 131.474 6.62208C134.279 9.39267 133.406 12.6143 132.222 15.707C133.78 14.6761 135.338 13.5808 136.896 12.5499C139.825 10.488 142.816 8.42618 145.87 6.62208C147.739 5.52672 149.92 3.98035 152.101 3.98035L152.164 3.98035C154.843 4.04478 157.274 5.97775 157.959 8.68391C158.084 9.2638 158.146 9.8437 158.084 10.3592C158.458 10.1659 158.832 9.90813 159.143 9.71483C162.197 7.84629 165.313 5.65559 168.616 4.17364C169.488 3.78705 170.298 3.65818 171.108 3.65818C175.658 3.65818 178.898 9.13494 175.969 13.5808C175.845 13.7741 175.72 13.9029 175.658 14.0962C175.845 14.0318 176.031 13.9674 176.218 13.8385C176.218 13.8385 176.343 13.7741 176.655 13.6452C177.091 13.4519 177.465 13.2586 177.901 13.0653C178.587 12.7432 179.272 12.421 179.895 12.0344C181.329 11.2612 182.762 10.4236 184.133 9.58597C184.881 9.13494 185.566 8.61948 186.252 8.10402C186.501 7.91072 186.75 7.71743 186.999 7.52413C187.062 7.4597 187.56 7.0731 187.623 7.00867C188.744 6.04218 189.804 5.01127 190.801 3.91591C191.549 2.94943 192.733 2.4984 193.854 2.4984ZM65.5419 8.87721C65.5419 8.74834 65.5419 8.68391 65.5419 8.68391C65.5419 8.74835 65.5419 8.74834 65.5419 8.87721ZM260.098 11.2612C260.098 11.0679 260.036 10.8102 259.974 10.8102C260.036 10.8746 260.036 10.939 260.098 11.2612ZM260.223 11.2612C260.223 11.2612 260.223 11.3256 260.223 11.3901C260.223 11.3901 260.223 11.3256 260.223 11.2612ZM281.473 18.4776L281.411 18.4776C281.411 18.4776 281.411 18.4776 281.473 18.4776ZM25.0976 20.9905C25.0976 20.9905 25.1599 20.9905 25.2223 20.9905C25.2223 20.9905 25.1599 20.9905 25.0976 20.9905ZM193.854 0.565429C192.109 0.565429 190.489 1.27419 189.305 2.56283C188.37 3.59375 187.373 4.56024 186.314 5.46229C186.314 5.46229 186.189 5.52672 186.127 5.65559C186.002 5.78445 185.815 5.91332 185.753 5.97775C185.504 6.17105 185.317 6.29991 185.068 6.49321C184.382 6.94424 183.697 7.4597 183.011 7.91072C181.765 8.74834 180.394 9.52153 178.96 10.2947C179.023 8.87721 178.711 7.4597 178.026 6.10662C176.655 3.40046 173.975 1.72521 171.108 1.72521C170.049 1.72521 168.99 1.98294 167.93 2.43397C165.375 3.52932 162.945 5.0757 160.639 6.55764C160.265 6.81537 159.891 7.0731 159.455 7.2664C158.333 4.23808 155.404 2.11181 152.164 2.04737L152.039 2.04737C149.609 2.04737 147.365 3.40046 145.62 4.49581C145.371 4.62467 145.122 4.81797 144.873 4.94683C141.944 6.68651 139.077 8.61948 136.335 10.5525L135.774 10.939C135.525 11.0679 135.338 11.2612 135.089 11.3901C135.151 9.39267 134.652 7.13753 132.658 5.20456C131.163 3.78705 129.48 3.01386 127.673 3.01386C125.055 3.01386 122.625 4.49581 120.506 6.10662C119.447 4.04478 117.577 2.4984 115.272 1.91851C114.711 1.78965 114.15 1.72521 113.589 1.72521C111.47 1.72521 109.538 2.6917 107.918 3.52932C107.606 3.72262 107.233 3.85148 106.921 4.04478C105.363 4.75354 103.743 5.59116 101.936 6.49321C100.315 7.2664 98.7573 8.10402 97.1994 8.87721C96.14 9.39267 95.0183 9.97256 93.9589 10.488C92.9618 7.20197 90.0328 4.81797 86.6054 4.75354C86.543 4.75354 86.4807 4.75354 86.4184 4.75354C83.8634 4.75354 82.0562 6.10662 80.4982 7.2664C80.2489 7.4597 79.9997 7.65299 79.7504 7.84629C78.7533 8.55505 77.7562 9.2638 76.6968 9.97256C76.6968 8.36175 76.3852 7.00867 75.762 5.78445C74.3287 3.14273 71.7114 1.53192 68.8448 1.53192C68.4709 1.53192 68.0969 1.53192 67.7854 1.59635C65.6666 1.91851 64.1086 3.07829 62.7376 4.17364C62.5507 4.30251 62.3637 4.49581 62.1768 4.62467C57.9391 7.84629 54.0754 10.8102 50.1494 13.5808C49.2146 11.1968 47.2205 9.19937 44.7277 8.49062C44.1046 8.29732 43.4814 8.23289 42.7959 8.23289C40.3655 8.23289 38.3713 9.58597 36.8757 10.6169C36.8757 10.5525 36.8134 10.488 36.8134 10.4236C35.8163 6.94424 32.7004 4.49581 29.2106 4.49581C29.1483 4.49581 29.086 4.49581 29.0236 4.49581C26.5309 4.56024 24.7237 5.91332 23.1658 7.13753C22.9788 7.2664 22.7919 7.39526 22.6049 7.52413C20.7354 8.87721 18.8658 10.2947 17.0586 11.7122C14.192 13.8385 11.2007 16.0936 8.2718 18.2199L7.96021 18.4132C6.5269 19.4441 5.09358 20.475 3.59796 21.3127C2.10233 22.1503 0.980605 23.6967 0.54438 25.5652C0.108155 27.3693 0.357426 29.2379 1.29219 30.7198C2.53855 32.7816 4.65736 33.9414 6.9008 33.9414C8.02252 33.9414 9.14425 33.6193 10.1413 33.1038C12.9456 31.493 15.6253 29.56 18.1803 27.627C18.8035 29.1734 19.8006 30.4621 21.1716 31.3641C22.418 32.1373 23.7889 32.5239 25.4715 32.5239C26.157 32.5239 26.8425 32.4595 27.6527 32.3306C28.8367 32.1373 29.8338 31.7507 30.7062 31.2353C30.7685 31.3641 30.8309 31.493 30.8932 31.6219C32.3265 34.0058 34.8815 35.4878 37.6235 35.4878C38.309 35.4878 39.0568 35.3589 39.7423 35.1656C41.3003 34.7146 42.7959 33.877 44.1046 33.1682C44.3538 33.0394 44.6031 32.9105 44.8524 32.7816C49.5262 30.3332 53.8885 27.3693 58.0015 24.341C58.8116 27.4982 61.3666 29.8822 64.4825 30.3332C64.8564 30.3976 65.168 30.3976 65.5419 30.3976C67.8477 30.3976 69.7795 29.3667 71.5244 28.4647C71.7737 28.3358 71.9607 28.2069 72.2099 28.1425C74.8273 26.7894 77.3823 25.3719 79.9373 23.7611C81.3083 26.274 83.8011 27.8848 86.6054 27.9492C86.6677 27.9492 86.73 27.9492 86.7923 27.9492C88.9734 27.9492 90.9053 26.9183 92.6502 26.0162C93.0864 25.8229 93.4603 25.5652 93.8965 25.3719C95.5791 24.5987 97.324 23.6967 99.3182 22.7302C100.502 22.1503 101.686 21.5704 102.808 20.9905C102.746 21.8281 102.87 22.6657 103.12 23.5678C104.117 26.9827 107.233 29.3667 110.722 29.3667C110.785 29.3667 110.847 29.3667 110.972 29.3667C113.776 29.3023 115.832 27.5626 117.64 26.0162C117.889 25.8229 118.138 25.5652 118.387 25.3719C118.574 26.0807 118.824 26.725 119.198 27.3049C120.631 29.7533 123.248 31.2997 126.053 31.2997C126.863 31.2997 127.611 31.1708 128.421 30.9131C130.353 30.2688 132.222 29.1734 133.842 28.2069C134.092 28.0781 134.279 27.9492 134.528 27.8203C137.581 26.0162 140.51 24.0188 143.377 22.0214C143.689 21.8281 144 21.5704 144.312 21.3771C144.935 22.859 145.994 24.1477 147.303 25.0497C148.549 25.8874 149.858 26.274 151.291 26.274C153.348 26.274 155.217 25.3719 156.838 24.4699C157.772 23.9544 158.707 23.3745 159.767 22.7946C160.39 24.7276 161.636 26.4028 163.381 27.4337C164.503 28.0781 165.749 28.4002 167.182 28.4002C168.616 28.4002 170.049 28.0781 171.358 27.6915C175.658 26.5317 179.771 24.9853 183.634 23.0523C184.881 26.0162 187.747 27.9492 190.988 27.9492C191.923 27.9492 192.857 27.8203 193.73 27.4982C195.288 26.9827 196.846 26.274 198.653 25.4363C200.086 26.8539 202.018 27.5626 204.199 27.5626C205.134 27.5626 206.131 27.4337 207.128 27.1116C210.867 26.0807 214.669 24.5987 218.47 22.7302C218.595 23.1168 218.782 23.4389 218.968 23.8255C220.402 26.4028 222.77 27.8203 225.761 27.8203C228.877 27.8203 232.118 26.3384 234.735 25.1786L235.358 24.9209C235.794 24.7276 236.231 24.5343 236.667 24.341C236.791 24.6632 236.978 25.0497 237.165 25.3719C238.599 27.8848 241.154 29.4311 244.02 29.4311C245.267 29.4311 246.513 29.109 247.635 28.5291C248.943 27.8848 250.065 27.0471 251.187 26.2095C251.623 25.8874 252.059 25.5652 252.496 25.243C253.306 24.7276 254.053 24.1477 254.864 23.6322C255.237 25.5008 256.359 27.176 257.979 28.1425C258.977 28.7868 260.098 29.0446 261.282 29.0446C262.466 29.0446 263.65 28.7224 264.897 28.1425C266.455 27.3693 267.888 26.2095 269.072 25.1786C269.384 24.9209 269.695 24.6631 270.007 24.4054C270.381 24.0833 270.755 23.8255 271.129 23.5034C272.749 25.7585 274.369 27.3693 276.114 28.4647C277.485 29.3023 278.918 29.6889 280.352 29.6889C281.66 29.6889 282.907 29.3023 283.966 28.5935C286.708 26.7894 288.328 22.6657 286.209 19.3153C285.337 17.8977 283.966 16.8668 282.47 16.3514L282.408 16.2869C282.283 16.1581 282.159 15.9648 282.034 15.8359L281.847 15.5782L281.847 15.5137L281.598 15.1272C281.224 14.5473 280.85 14.0318 280.539 13.4519C280.352 13.1297 280.165 12.8076 279.978 12.421C279.23 10.939 278.357 9.2638 276.426 8.23289C275.179 7.58856 273.871 7.2664 272.5 7.2664C272.437 7.2664 272.313 7.2664 272.25 7.2664C271.752 7.2664 271.253 7.33083 270.755 7.4597C270.007 5.97775 268.885 4.81797 267.514 3.98035C266.392 3.33602 265.208 3.01386 263.962 3.01386C262.217 3.01386 260.41 3.65818 258.416 5.01127C257.045 5.91332 255.736 6.81537 254.303 7.84629C252.994 5.0757 250.252 3.20716 247.136 3.20716C247.074 3.20716 246.949 3.20716 246.887 3.20716C244.27 3.27159 242.338 4.81797 240.655 6.17105C240.219 6.49321 239.845 6.81537 239.409 7.13753C237.975 8.16845 236.48 9.13494 234.984 10.037C234.361 6.17105 231.058 3.20716 227.194 3.20716C227.132 3.20716 227.07 3.20716 227.007 3.20716C224.577 3.27159 222.708 4.62467 221.087 5.78445C220.651 6.10662 220.277 6.36435 219.903 6.62208C218.345 7.65299 216.725 8.61948 215.105 9.52153C214.17 10.037 213.173 10.5525 212.176 11.0035C211.802 11.1968 211.428 11.3256 211.054 11.5189C210.867 11.5834 210.618 11.7122 210.306 11.8411C210.119 11.9055 209.932 11.97 209.87 12.0344C209.434 12.2277 208.998 12.3566 208.561 12.5499C207.066 10.5525 204.698 9.32824 202.267 9.32824C201.644 9.32824 201.021 9.39267 200.46 9.58597C201.27 7.2664 200.959 4.43137 198.964 2.4984C197.282 1.27419 195.599 0.565429 193.854 0.565429Z" fill="black"/>
</svg>
