<svg width="283" height="39" viewBox="0 0 283 39" fill="none" xmlns="http://www.w3.org/2000/svg">
<path d="M266.694 17.6362C266.239 17.6362 265.849 17.3354 265.719 16.9144C265.719 16.7941 265.588 16.1927 266.369 15.8919C266.499 15.8318 266.629 15.8318 266.76 15.8318C267.15 15.8318 267.475 16.0122 267.67 16.3731C267.866 16.7941 267.67 17.3354 267.215 17.576C267.085 17.5159 266.89 17.6362 266.694 17.6362Z" fill="white"/>
<path d="M266.76 14.8699C266.629 14.8699 266.499 14.8699 266.369 14.93C266.174 14.9902 266.044 14.9902 265.914 15.1105C264.938 15.5315 264.678 16.4337 264.808 17.1554C265.003 17.9974 265.784 18.5989 266.695 18.5989C267.085 18.5989 267.41 18.4786 267.54 18.4185C268.191 18.1177 268.711 17.5163 268.711 16.7945C268.711 15.8322 267.931 15.0503 266.89 14.9902C266.825 14.8699 266.76 14.8699 266.76 14.8699Z" fill="black"/>
<path d="M268.581 15.1103C268.581 15.0501 268.646 15.0501 268.646 14.99C268.581 15.0501 268.516 15.1103 268.516 15.1704C268.581 15.1103 268.581 15.1103 268.581 15.1103Z" fill="white"/>
<path d="M268.646 14.9902C268.646 15.0503 268.581 15.0503 268.581 15.1104L268.516 15.1706C268.581 15.1104 268.646 15.0503 268.646 14.9902ZM268.646 13.1858C268.321 13.1858 267.996 13.2459 267.735 13.3662C267.54 13.4865 267.345 13.6068 267.15 13.7271C267.15 13.7271 267.15 13.7271 267.085 13.7872C266.955 13.9075 266.89 14.0278 266.825 14.1481C266.239 14.93 266.434 16.0126 267.215 16.5539C267.54 16.7945 267.996 16.9148 268.451 16.9148C268.972 16.9148 269.492 16.7344 269.882 16.3134V16.2532C269.947 16.1931 270.013 16.1329 270.078 16.0728L270.143 16.0126C270.403 15.7119 270.533 15.351 270.533 14.93C270.598 14.0278 269.752 13.1858 268.646 13.1858C268.711 13.1858 268.711 13.1858 268.646 13.1858Z" fill="black"/>
<path d="M261.36 19.6213C260.904 19.6213 260.449 19.3206 260.384 18.8996C260.319 18.4786 260.579 17.9974 261.034 17.8771C261.49 17.7568 261.685 17.7568 261.815 17.7568C262.335 17.7568 262.791 18.1177 262.791 18.5989C262.791 18.7192 262.856 19.4409 261.75 19.6213C261.75 19.6213 261.685 19.6213 261.62 19.6213C261.555 19.6213 261.49 19.6213 261.425 19.6213C261.49 19.6213 261.36 19.6213 261.36 19.6213Z" fill="white"/>
<path d="M261.88 18.5986C261.945 18.5986 261.88 18.6588 261.685 18.6588H261.62C261.555 18.6588 261.555 18.6588 261.49 18.6588C261.425 18.6588 261.425 18.6588 261.36 18.6588C261.62 18.6588 261.815 18.5986 261.88 18.5986Z" fill="black"/>
<path d="M17.2547 37.9054C15.1728 37.9054 13.2861 36.943 12.115 35.3191C11.6596 34.7177 11.3993 33.9358 11.3343 33.0937C10.3584 32.8532 9.44753 32.4321 8.66681 31.7705C6.78007 30.1466 6.32465 27.0191 7.75597 25.0944L8.40657 24.2524C7.95115 24.3125 7.49573 24.3727 7.10537 24.3727C5.08851 24.3727 3.3319 23.4705 2.16082 21.7864C1.31504 20.5835 1.11986 18.9596 1.57528 17.3958C2.0307 15.9523 3.0066 14.8095 4.3078 14.2682L22.5896 6.44931C23.5655 6.02829 24.5414 5.78771 25.5173 5.78771C27.0137 5.78771 28.38 6.32902 29.5511 7.29135C30.8523 8.37396 31.4378 10.2385 31.2426 11.9225L38.7245 8.13338C39.6354 7.65222 40.6113 7.41164 41.6522 7.41164C43.4739 7.41164 45.1654 8.19353 46.2715 9.51673C46.7269 10.058 47.0522 10.7196 47.2474 11.3812C51.7365 8.67469 56.3558 5.84785 61.0401 3.32175C61.9509 2.84058 62.9268 2.6 63.9678 2.6C65.7895 2.6 67.5461 3.38189 68.6521 4.70509C70.4738 6.87033 70.2135 10.058 68.1316 11.8624C66.4401 13.3059 64.7485 14.8095 63.2521 16.253C69.5629 13.3059 75.8737 9.99789 82.0544 6.26887C82.9653 5.72756 83.9412 5.42684 84.9821 5.42684C87.3243 5.42684 89.6014 6.99062 90.5773 9.216C91.0327 10.3588 91.0978 11.5015 90.7725 12.524C99.7508 8.19353 107.298 4.64495 115.495 1.75796C116.016 1.57753 116.536 1.45724 117.122 1.45724C119.009 1.45724 121.025 2.53986 122.196 4.16378C122.652 4.82538 122.912 5.66742 122.977 6.5696C123.498 6.38916 123.953 6.20873 124.408 6.02829C124.929 5.84785 125.449 5.72756 126.035 5.72756C127.727 5.72756 129.613 6.62975 130.719 7.8928C131.76 9.15585 132.346 11.2609 131.695 12.945C132.151 12.7646 132.671 12.524 133.127 12.3436C135.143 11.5015 137.225 10.6595 139.242 9.81745C145.553 7.2312 152.124 4.52466 158.89 2.47971C159.411 2.29927 159.996 2.23913 160.517 2.23913C162.338 2.23913 164.095 3.14131 165.266 4.70509C165.982 5.66742 166.372 6.81018 166.372 7.8928L182.312 1.57753C183.288 1.15651 184.329 0.976074 185.305 0.976074C187.321 0.976074 189.078 1.87826 190.184 3.56233C190.444 3.9232 190.64 4.34422 190.77 4.70509C191.55 4.40436 192.396 4.22393 193.177 4.22393C194.608 4.22393 195.974 4.76524 197.146 5.72756C198.056 6.50945 198.642 7.65222 198.837 8.91527C202.741 6.87033 206.644 4.64495 210.418 2.23913C211.264 1.69782 212.239 1.45724 213.28 1.45724C215.102 1.45724 216.924 2.29927 218.03 3.62247C219.851 5.78771 219.591 8.79498 217.574 10.7196L216.403 11.8023C221.803 9.27614 227.073 6.20873 232.148 2.78044C232.928 2.23913 233.904 1.9384 235.01 1.9384C236.832 1.9384 238.719 2.78044 239.825 4.10364C240.996 5.54713 241.451 7.71236 240.671 9.51673C241.516 9.03556 242.362 8.5544 243.143 8.07324C243.989 7.59207 244.965 7.29135 246.006 7.29135C247.567 7.29135 249.128 7.83265 250.234 8.85513C252.121 10.4791 252.577 13.6668 251.145 15.5313L250.43 16.4335L252.056 15.6516C252.967 15.2305 253.943 14.99 255.049 14.99C257.326 14.99 259.213 16.0124 260.059 17.6965C260.124 17.6965 260.254 17.7567 260.319 17.7567H260.384C260.449 17.7567 260.579 17.7567 260.644 17.7567C260.904 17.7567 261.099 17.7567 261.36 17.7567C261.36 17.7567 261.425 17.7567 261.49 17.7567H261.685C262.01 17.6965 262.401 17.5762 262.856 17.5161C263.116 17.4559 263.377 17.3958 263.572 17.2755C263.702 17.2153 263.897 17.1552 264.027 17.1552L264.092 17.0951C264.222 17.0349 264.287 16.9748 264.418 16.9748C264.808 16.7943 265.198 16.6139 265.589 16.3733C265.784 16.253 265.914 16.1929 266.109 16.0726C266.174 16.0124 266.304 15.8921 266.434 15.832C266.434 15.832 266.499 15.832 266.499 15.7719L266.695 15.6516C266.825 15.5313 266.955 15.4711 267.085 15.3508C267.345 15.1103 267.605 14.8697 267.866 14.6291L267.996 14.5088L268.126 14.3284C268.516 13.4863 269.102 12.6443 269.817 11.9827C270.858 10.9602 272.29 10.4189 273.851 10.4189C275.152 10.4189 276.454 10.8399 277.495 11.5617C278.47 12.2834 279.186 13.2457 279.511 14.3284C280.097 14.7494 280.617 15.2305 281.073 15.832C281.854 16.9748 282.114 18.4183 281.723 19.8617C281.333 21.3654 280.357 22.6284 278.991 23.29C277.69 23.9516 276.258 24.3125 274.892 24.3125C274.567 24.3125 274.242 24.3125 273.981 24.2524C271.509 26.1169 268.451 27.5002 265.458 28.1618C264.027 28.4625 262.531 28.643 261.034 28.643C258.367 28.643 255.96 28.1017 254.008 27.0792L234.425 36.5822C233.514 37.0032 232.538 37.2438 231.497 37.2438C230.001 37.2438 228.504 36.7025 227.398 35.7401C225.512 34.1162 225.056 30.9285 226.488 29.064L227.854 27.3198C222.129 29.2444 216.403 30.6278 210.808 31.4097C210.353 31.4698 209.962 31.53 209.507 31.53C207.295 31.53 205.473 30.6278 204.302 28.9437C204.107 28.7031 203.977 28.4024 203.847 28.0415C201.309 28.7031 198.772 29.2444 196.235 29.7256C195.779 29.7857 195.324 29.8459 194.868 29.8459C192.721 29.8459 190.9 28.9437 189.729 27.2596C189.338 26.7183 189.078 26.1169 189.013 25.4553C184.134 27.3198 179.189 28.8836 174.244 30.0865C173.724 30.2068 173.269 30.2669 172.748 30.2669C170.731 30.2669 168.844 29.3046 167.673 27.6205L167.608 27.5604C165.071 28.1618 162.534 28.5828 160.061 28.8836C159.866 28.8836 159.671 28.9437 159.541 28.9437C157.069 28.9437 154.987 26.8988 154.336 24.9741C154.271 24.8538 154.271 24.6734 154.206 24.5531L141.91 29.4249C140.869 29.8459 139.893 30.0263 138.917 30.0263C137.095 30.0263 135.599 29.3046 134.428 27.9814C133.582 26.9589 133.127 25.5756 133.192 24.2524L132.866 24.3727C126.555 26.9589 119.984 29.6654 113.218 31.7104C112.698 31.8908 112.177 31.951 111.657 31.951C109.9 31.951 108.078 31.1089 106.972 29.7857C106.777 29.5452 106.582 29.2444 106.387 28.8836C103.459 30.5676 100.857 31.7705 98.2544 32.6727C97.7339 32.8532 97.2134 32.9734 96.6279 32.9734C94.4158 32.9734 92.5291 31.5901 91.5532 30.2669C90.3171 28.5227 90.5122 25.8161 91.8785 24.1922C84.3315 27.8009 77.6954 30.8082 70.4738 33.3343C69.9533 33.5148 69.4328 33.635 68.8473 33.635C66.9605 33.635 64.9437 32.5524 63.7726 30.9285C63.2521 30.2068 62.9919 29.2444 62.9919 28.2821C55.9654 31.2894 48.7437 33.8155 41.5872 35.9206C41.0667 36.101 40.4811 36.1612 39.9607 36.1612C38.3992 36.1612 36.9679 35.5597 35.7968 34.4169C35.0161 33.635 34.4956 32.6126 34.2354 31.5901C29.3559 34.1162 24.1511 36.5822 18.686 37.7249C18.2306 37.9054 17.7101 37.9054 17.2547 37.9054Z" fill="white"/>
<path d="M185.239 1.9987C186.866 1.9987 188.297 2.6603 189.338 4.16393C189.794 4.82553 189.989 5.54728 189.989 6.26902C190.965 5.60743 192.071 5.3067 193.177 5.3067C194.348 5.3067 195.454 5.72772 196.495 6.56975C197.601 7.53208 198.121 9.156 197.861 10.5995C202.35 8.31397 206.709 5.84801 210.938 3.14146C211.654 2.72044 212.434 2.47986 213.215 2.47986C214.777 2.47986 216.338 3.20161 217.184 4.28423C218.68 6.02844 218.55 8.6147 216.793 10.1785C215.102 11.7423 213.41 13.3662 211.719 14.93C212.109 14.7495 212.565 14.5691 212.955 14.3887C219.916 11.4415 226.487 7.77266 232.603 3.56248C233.254 3.08132 234.034 2.90088 234.88 2.90088C236.442 2.90088 238.003 3.62263 238.914 4.70524C240.215 6.26902 240.41 9.2763 238.523 10.5995C236.962 11.7423 235.336 12.885 233.774 14.0278C234.034 13.9075 234.295 13.7872 234.555 13.6669C237.613 12.2234 240.67 10.5995 243.598 8.85528C244.314 8.43426 245.095 8.25382 245.94 8.25382C247.241 8.25382 248.543 8.73499 249.519 9.57702C251.015 10.8401 251.47 13.4865 250.299 15.0503C249.258 16.3735 248.217 17.7568 247.176 19.08C248.933 18.238 250.69 17.3959 252.381 16.5539C253.162 16.193 254.008 16.0126 254.919 16.0126C256.61 16.0126 258.302 16.6742 259.082 18.1778C259.147 18.2981 259.213 18.4184 259.278 18.5387C259.473 18.5988 259.798 18.7191 259.993 18.7793C260.058 18.7793 260.123 18.7793 260.253 18.7793C260.319 18.7793 260.449 18.7793 260.514 18.7793C260.774 18.7793 261.034 18.7793 261.294 18.7793C261.229 18.7793 261.164 18.8394 261.099 18.8394C261.229 18.7793 261.36 18.7793 261.555 18.7793H261.62C261.62 18.7793 261.62 18.7793 261.685 18.7793C262.14 18.7191 262.531 18.5988 262.986 18.4785C263.441 18.3583 263.832 18.1778 264.287 18.0575C264.482 17.9974 264.613 17.9372 264.808 17.8169C265.198 17.6365 265.653 17.3959 266.044 17.1553C266.239 17.0351 266.499 16.9148 266.694 16.7343C266.825 16.6742 267.215 16.4937 267.215 16.4937C267.215 16.4937 267.15 16.4937 266.955 16.614C266.89 16.6742 266.825 16.6742 266.759 16.6742C266.825 16.614 266.955 16.5539 267.085 16.4937C267.28 16.3133 267.475 16.193 267.67 16.0126C267.996 15.7119 268.256 15.4111 268.581 15.1104C268.581 15.1705 268.516 15.1705 268.581 15.1705C268.581 15.1705 268.646 15.1104 268.646 15.0503C268.711 14.9901 268.776 14.93 268.776 14.8698C268.776 14.8698 268.776 14.8698 268.776 14.8097C268.776 14.8698 268.711 14.8698 268.646 14.93C268.711 14.8698 268.776 14.8097 268.776 14.7495C269.167 13.9676 269.687 13.1857 270.338 12.5241C271.249 11.622 272.42 11.2009 273.721 11.2009C274.827 11.2009 275.933 11.5017 276.779 12.1633C277.755 12.885 278.34 13.7872 278.535 14.7495C279.121 15.1104 279.706 15.5916 280.097 16.193C281.528 18.238 280.552 21.1851 278.34 22.388C277.169 22.9895 275.933 23.2902 274.697 23.2902C274.306 23.2902 273.851 23.23 273.461 23.1699C270.988 25.0945 267.996 26.4779 264.938 27.1395C263.637 27.4402 262.205 27.6207 260.774 27.6207C258.302 27.6207 255.829 27.1395 253.813 25.9366C247.111 29.1844 240.475 32.4323 233.774 35.6801C232.993 36.041 232.148 36.2816 231.302 36.2816C230.066 36.2816 228.83 35.8606 227.854 35.0185C226.357 33.7555 225.902 31.1091 227.073 29.5453C228.114 28.162 229.22 26.7786 230.261 25.3953C223.82 27.8011 217.184 29.5453 210.352 30.5076C209.962 30.5678 209.572 30.5678 209.246 30.5678C207.49 30.5678 205.928 29.9062 204.887 28.4025C204.562 27.9815 204.367 27.4402 204.302 26.8989C201.504 27.6808 198.707 28.2823 195.844 28.8236C195.454 28.8837 195.063 28.9439 194.673 28.9439C192.916 28.9439 191.355 28.2221 190.379 26.7786C189.859 25.9967 189.663 25.0945 189.728 24.1322C184.524 26.117 179.254 27.8612 173.789 29.2446C173.398 29.3649 172.943 29.425 172.553 29.425C170.861 29.425 169.235 28.583 168.259 27.1996C168.129 27.0192 167.998 26.7786 167.933 26.538C165.266 27.1996 162.533 27.6808 159.736 28.0417C159.606 28.0417 159.476 28.0417 159.345 28.0417C157.329 28.0417 155.637 26.2975 155.052 24.7337C154.856 24.2525 154.791 23.7112 154.856 23.23C150.367 25.0344 145.813 26.7786 141.324 28.583C140.478 28.9439 139.567 29.1243 138.721 29.1243C137.355 29.1243 136.054 28.6431 135.013 27.4402C133.972 26.1772 133.647 24.2525 134.428 22.7489C133.712 23.0496 132.996 23.3503 132.346 23.6511C125.905 26.2975 119.464 28.9439 112.828 30.9888C112.437 31.1091 111.982 31.1692 111.591 31.1692C110.095 31.1692 108.599 30.4475 107.688 29.3649C107.298 28.8837 106.972 28.3424 106.842 27.6808C103.979 29.3047 101.052 30.8084 97.8638 32.0113C97.4735 32.1917 97.0181 32.2519 96.5626 32.2519C94.8711 32.2519 93.1795 31.2294 92.3337 29.9663C91.2277 28.4025 91.553 25.7561 93.1145 24.4931C94.6108 23.3503 95.9771 22.0873 97.3434 20.7641C96.5626 21.1249 95.7819 21.4858 95.0663 21.8467C86.9338 25.7561 78.7362 29.6656 70.1483 32.6729C69.7579 32.7932 69.3025 32.9135 68.8471 32.9135C67.1555 32.9135 65.464 31.891 64.6182 30.6279C63.9025 29.6055 63.7724 28.2221 64.1628 27.0192C56.7459 30.2671 49.1339 33.0337 41.2617 35.2591C40.8063 35.3794 40.3508 35.4396 39.8954 35.4396C37.0328 35.4396 34.8207 32.7932 35.081 30.2671C29.8762 33.0337 24.281 35.8004 18.4256 37.0033C18.0353 37.0635 17.5799 37.1236 17.1895 37.1236C15.4329 37.1236 13.8714 36.3417 12.8955 34.8983C12.4401 34.1765 12.2449 33.3345 12.2449 32.4323C11.1389 32.312 10.098 31.891 9.25218 31.1692C7.7558 29.9062 7.30038 27.2598 8.47146 25.696C9.31724 24.6134 10.163 23.5308 10.9437 22.388C10.4883 22.5684 9.96784 22.809 9.51242 22.9895C8.66664 23.3503 7.82086 23.5308 6.97508 23.5308C5.34858 23.5308 3.8522 22.809 2.81124 21.3655C1.64017 19.4409 2.35582 16.193 4.69798 15.1705C10.8136 12.5843 16.9293 9.9379 22.9798 7.35164C23.8256 6.99077 24.6714 6.81033 25.5172 6.81033C26.7533 6.81033 27.8593 7.23135 28.9003 8.07339C30.3967 9.33644 30.8521 11.9828 29.681 13.5466C29.5509 13.7271 29.3557 13.9676 29.2256 14.1481C32.5436 12.4039 35.9268 10.6596 39.2448 8.91542C40.0255 8.49441 40.8713 8.31397 41.652 8.31397C43.1484 8.31397 44.5797 8.91542 45.4906 10.0582C46.1412 10.8401 46.5315 11.9227 46.5315 12.9452C51.4761 9.9379 56.4206 6.93062 61.5604 4.10379C62.3411 3.68277 63.1218 3.50233 63.9676 3.50233C65.464 3.50233 66.8953 4.16393 67.8712 5.24655C69.3025 6.93062 69.3025 9.63717 67.4808 11.1408C64.4881 13.7271 61.6254 16.4336 58.8279 19.2003C59.4134 18.9597 59.9989 18.7191 60.5845 18.4184C68.1965 15.0503 75.4832 11.2611 82.5747 6.99077C83.3555 6.50961 84.2013 6.32917 84.982 6.32917C88.8205 6.32917 91.9434 11.2611 88.4952 14.0879C88.0398 14.5089 87.5844 14.8698 87.1289 15.2908C88.3651 14.6894 89.6663 14.0879 90.9024 13.4865C99.0349 9.57702 107.232 5.66757 115.82 2.6603C116.211 2.54001 116.666 2.41972 117.122 2.41972C118.813 2.41972 120.505 3.44219 121.35 4.70524C122.001 5.60742 122.131 6.93062 121.871 8.07339C122.847 7.65237 123.758 7.23135 124.799 6.87048C125.189 6.75019 125.644 6.69004 126.035 6.69004C127.531 6.69004 129.093 7.47193 129.938 8.49441C130.979 9.75746 131.5 12.1031 130.329 13.4865C129.873 14.0278 129.418 14.5691 128.962 15.1104C129.158 14.9901 129.418 14.93 129.613 14.8097C132.931 13.4263 136.314 12.043 139.632 10.6596C146.073 8.01324 152.514 5.36684 159.15 3.3219C159.606 3.20161 160.061 3.14146 160.517 3.14146C163.77 3.14146 166.307 6.69004 165.136 9.39659C170.991 7.05092 176.912 4.76539 182.767 2.41972C183.483 2.17914 184.394 1.9987 185.239 1.9987ZM185.239 0.194336C184.133 0.194336 183.027 0.434918 181.856 0.855936L167.088 6.69004C166.892 5.84801 166.502 5.06612 165.982 4.28423C164.68 2.47986 162.598 1.39724 160.452 1.39724C159.801 1.39724 159.15 1.51754 158.5 1.69797C151.733 3.80306 145.162 6.44946 138.787 9.09586C136.835 9.87775 134.818 10.7198 132.866 11.5618C132.866 10.0582 132.281 8.55455 131.435 7.47193C130.134 5.90815 127.987 4.94583 125.97 4.94583C125.254 4.94583 124.603 5.06612 124.018 5.3067C123.888 5.36684 123.823 5.36684 123.693 5.42699C123.563 4.82553 123.302 4.28423 122.977 3.80306C121.676 1.93855 119.334 0.675499 117.122 0.675499C116.471 0.675499 115.755 0.79579 115.17 0.976227C107.428 3.68277 100.271 6.99077 92.0084 10.9604C92.0084 10.2988 91.8133 9.57702 91.553 8.91542C90.5121 6.32917 87.8446 4.52481 85.047 4.52481C83.8109 4.52481 82.7049 4.82553 81.5988 5.48713C77.37 8.01324 73.076 10.3589 68.782 12.5241L68.8471 12.464C71.3194 10.3589 71.5796 6.6299 69.4326 4.10379C68.1314 2.54001 66.1146 1.63783 63.9676 1.63783C62.7965 1.63783 61.6254 1.93855 60.5845 2.47986C56.2255 4.82553 51.9315 7.41179 47.7677 9.9379C47.5725 9.57702 47.3123 9.21615 47.052 8.85528C45.7508 7.2915 43.799 6.38932 41.652 6.38932C40.481 6.38932 39.3099 6.69004 38.2689 7.23135L33.5846 9.69731L32.2183 10.4792C32.0232 9.03571 31.3075 7.71251 30.2015 6.75019C28.9003 5.60742 27.2738 5.00597 25.5172 5.00597C24.4112 5.00597 23.3051 5.24655 22.1341 5.72772L3.8522 13.5466C2.29076 14.2082 1.11969 15.5314 0.599206 17.2155C0.0136662 19.0199 0.273906 20.9445 1.24981 22.3279C2.48594 24.0721 4.37268 25.1547 6.4546 25.275C5.28352 27.5004 5.86906 30.6881 7.95098 32.3721C8.66664 32.9736 9.51242 33.4548 10.4233 33.7555C10.5534 34.4772 10.8787 35.199 11.269 35.7403C12.6353 37.6649 14.7823 38.7476 17.1895 38.7476C17.71 38.7476 18.2955 38.6874 18.8811 38.5671C24.0208 37.4845 28.9653 35.2591 33.5846 32.9135C33.9099 33.6953 34.3653 34.3569 34.9509 34.9584C36.2521 36.2816 38.0087 37.0033 39.8304 37.0033C40.481 37.0033 41.1316 36.883 41.7822 36.7026C48.5484 34.7178 55.3797 32.312 62.0809 29.5453C62.211 30.2069 62.5363 30.8084 62.8616 31.3497C64.1628 33.2142 66.5049 34.4772 68.717 34.4772C69.3676 34.4772 70.0832 34.3569 70.6688 34.1765C77.1097 31.891 83.0952 29.2446 89.7313 26.117C89.406 27.6808 89.6663 29.3649 90.5771 30.6881C91.8783 32.5526 94.2205 33.8156 96.4325 33.8156C97.1482 33.8156 97.7988 33.6953 98.4494 33.4548C100.792 32.6127 103.199 31.47 105.866 30.0265C105.931 30.0866 105.996 30.1468 105.996 30.2069C107.298 31.7707 109.379 32.733 111.396 32.733C112.047 32.733 112.632 32.6127 113.283 32.4323C119.724 30.4475 125.97 27.9214 132.02 25.4554C132.215 26.538 132.671 27.5004 133.322 28.3424C134.623 29.9062 136.444 30.7482 138.526 30.7482C139.632 30.7482 140.738 30.5076 141.909 30.0866L143.211 29.5453L153.23 25.5757C154.141 27.6207 156.418 29.6656 159.215 29.6656C159.411 29.6656 159.671 29.6656 159.866 29.6055C162.143 29.3047 164.485 28.9439 166.827 28.4025C168.194 30.0265 170.211 30.9888 172.357 30.9888C172.943 30.9888 173.529 30.9287 174.114 30.7482C178.733 29.6055 183.353 28.162 187.972 26.4779C188.102 26.8388 188.297 27.1996 188.557 27.5605C189.924 29.4852 192.006 30.5678 194.543 30.5678C195.063 30.5678 195.584 30.5076 196.104 30.4475C198.381 30.0265 200.659 29.5453 203.001 29.004C203.066 29.1243 203.131 29.1844 203.196 29.3047C204.562 31.2294 206.644 32.312 209.181 32.312C209.637 32.312 210.092 32.2519 210.613 32.1917C215.362 31.5301 220.242 30.4475 225.056 29.004C223.755 31.2294 224.34 34.5374 226.422 36.2816C227.724 37.4244 229.48 38.0258 231.237 38.0258C232.408 38.0258 233.514 37.7852 234.62 37.2439L253.747 27.9214C255.764 28.8837 258.172 29.3649 260.774 29.3649C262.335 29.3649 263.897 29.1844 265.393 28.8236C268.451 28.162 271.509 26.7786 273.981 24.9743C274.176 24.9743 274.371 24.9743 274.632 24.9743C276.258 24.9743 277.82 24.5532 279.251 23.8315C280.812 22.9895 281.984 21.546 282.439 19.8017C282.894 18.1778 282.569 16.4336 281.658 15.1104C281.268 14.5089 280.747 13.9676 280.162 13.5466C279.771 12.4039 278.991 11.3814 277.885 10.5995C276.714 9.75746 275.152 9.2763 273.656 9.2763C271.769 9.2763 270.078 9.9379 268.906 11.1408C268.126 11.9227 267.54 12.7647 267.085 13.6669V13.7271L267.02 13.7872C266.759 14.0278 266.499 14.2684 266.304 14.5089C266.174 14.6292 266.044 14.6894 265.979 14.8097L265.914 14.8698C265.719 14.93 265.588 15.0503 265.458 15.1705C265.328 15.2307 265.198 15.351 265.068 15.4111C264.743 15.5916 264.352 15.772 263.962 15.9524C263.832 16.0126 263.767 16.0126 263.637 16.0727H263.572C263.441 16.1329 263.311 16.193 263.116 16.193C262.856 16.2532 262.661 16.3735 262.4 16.4336C262.01 16.5539 261.685 16.614 261.36 16.6742C261.36 16.6742 261.36 16.6742 261.294 16.6742H261.229H261.164C260.969 16.6742 260.774 16.6742 260.579 16.6742C259.473 14.93 257.326 13.9075 254.919 13.9075C254.138 13.9075 253.357 14.0278 252.641 14.2082C253.292 12.1031 252.576 9.51688 250.82 8.01324C249.454 6.87048 247.697 6.20888 245.875 6.20888C244.639 6.20888 243.468 6.50961 242.492 7.11106C242.297 7.23135 242.102 7.35164 241.842 7.47193C241.842 5.9683 241.321 4.46466 240.41 3.38204C239.109 1.87841 236.962 0.855936 234.815 0.855936C233.579 0.855936 232.343 1.21681 231.432 1.87841C227.658 4.46466 223.69 6.87048 219.721 8.91542C220.502 6.93062 220.177 4.6451 218.745 2.84073C217.444 1.27695 215.362 0.314627 213.215 0.314627C211.979 0.314627 210.808 0.675499 209.832 1.27695C206.449 3.44219 203.001 5.48713 199.487 7.35164C199.162 6.38932 198.577 5.54728 197.796 4.88568C196.43 3.74292 194.868 3.14146 193.177 3.14146C192.526 3.14146 191.941 3.20161 191.29 3.38204C191.225 3.20161 191.095 3.02117 190.965 2.84073C189.598 1.27695 187.582 0.194336 185.239 0.194336Z" fill="black"/>
</svg>
