<svg width="286" height="42" viewBox="0 0 286 42" fill="none" xmlns="http://www.w3.org/2000/svg">
<path d="M40.6394 39.8746C36.9354 39.8927 33.7378 37.1281 32.4971 35.9057C30.9953 34.426 30.077 32.6848 29.8735 30.9401C28.1875 31.6595 26.5661 32.314 25.0097 32.9681C24.6854 33.099 24.3611 33.2299 23.9718 33.3611C21.9612 34.1468 19.6912 35.063 17.4168 35.0741C15.9872 35.0811 14.6207 34.6998 13.5125 33.994C12.1438 33.1602 11.1631 31.9366 10.6363 30.5167C10.0521 30.6489 9.53224 30.6514 9.01238 30.6539C8.49253 30.6565 7.97235 30.5944 7.51685 30.4673C5.82542 30.0876 4.32642 29.1898 3.28008 27.8371C1.90694 26.0981 1.44229 24.0961 1.88392 21.3785C2.26246 19.049 2.641 16.7196 3.08484 14.4546C3.27411 13.2899 3.46338 12.1251 3.71794 11.0248C4.22392 8.17751 7.0109 6.67686 9.5452 6.66449C10.0001 6.66228 10.4553 6.72471 10.9105 6.78714C14.2933 7.5465 15.6097 10.9668 15.1037 13.814L14.5346 17.0495C14.7939 16.919 15.0532 16.7884 15.3125 16.6578C16.2847 16.1358 17.2569 15.6139 18.2288 15.0272C19.0064 14.5709 19.7187 14.0501 20.431 13.5294L20.6253 13.3992L20.8843 13.204C21.0136 13.074 21.1432 13.0087 21.2726 12.8788C21.4669 12.7485 21.5959 12.5539 21.7902 12.4237L21.9845 12.2934L26.639 7.29231C27.6733 6.18814 29.1001 5.59929 30.6597 5.59168C32.2192 5.58408 33.7816 6.15835 34.8914 7.18741C37.5023 9.56689 36.8046 13.0616 35.0611 15.3331C34.9964 15.398 34.9317 15.463 34.8671 15.528C36.3576 14.6802 37.7834 13.8974 39.1439 13.0502L39.6622 12.7244C41.3467 11.6817 42.9662 10.6394 44.9772 9.91836C46.3396 9.45913 47.638 9.19418 48.8076 9.18847C50.6921 9.17928 52.1895 9.75387 53.4302 10.9763C56.173 13.743 55.2812 17.4327 53.2132 19.7703C51.8558 21.264 50.4984 22.7577 49.1411 24.2514C49.2057 24.1864 49.3354 24.1211 49.4 24.0561L49.918 23.6657C49.9827 23.6007 50.0473 23.5357 50.1773 23.5351C50.242 23.4701 50.3066 23.4052 50.3713 23.3402C50.5006 23.2103 50.5653 23.1453 50.6949 23.08C52.7009 21.3245 54.6406 19.3108 56.5806 17.3617C57.3562 16.5174 58.1972 15.7374 58.9732 14.9578C59.2966 14.6329 59.6196 14.2434 60.0079 13.9183C61.6889 12.1644 63.5636 10.151 66.0298 9.49239C66.614 9.36023 67.2632 9.22776 67.848 9.2249C69.7975 9.2154 71.7511 10.0464 73.1876 11.4618C74.5592 12.8775 75.3478 14.684 75.2919 16.5592C75.2358 18.3698 74.5292 20.0543 73.757 21.6098C77.8395 19.2623 81.9854 16.5912 86.0657 13.7912C87.102 13.0749 88.0086 12.4239 88.9148 11.7083C89.1738 11.5131 89.4328 11.3179 89.6918 11.1226C90.2744 10.6672 90.8571 10.2118 91.505 9.82071C92.5419 9.23376 93.7749 8.90447 95.0096 8.89845C98.3887 8.88197 101.389 11.1302 102.249 14.2941C102.381 14.7461 102.448 15.1983 102.516 15.6506C103.551 14.7404 104.586 13.8301 105.622 12.9199C107.045 11.6845 108.469 10.4492 109.892 9.21378L110.41 8.75868C112.416 7.00322 114.487 5.24744 116.754 3.81398C118.18 2.90186 119.802 2.44137 121.361 2.43376C123.246 2.42457 124.939 3.12751 126.31 4.41391C128.726 6.79435 129.196 9.96013 127.716 13.0061C128.234 12.4864 128.816 11.9663 129.333 11.4465L130.239 10.5369C130.433 10.342 130.627 10.1471 130.821 9.95221C131.597 9.17257 132.437 8.2633 133.474 7.74101C134.381 7.21934 135.485 6.95534 136.525 6.95027C138.539 6.94045 140.428 7.8364 141.671 9.4467C142.586 10.606 143.048 12.0262 142.925 13.5785L147.785 10.5807C148.108 10.3851 148.432 10.1896 148.756 9.99403C149.664 9.53702 150.702 9.27333 151.677 9.26858C154.406 9.25527 156.754 10.9895 157.546 13.5072C157.943 14.9923 157.821 16.6092 157.115 18.3584C157.051 18.488 156.986 18.6176 156.922 18.7472C156.922 18.7472 157.31 18.4221 157.44 18.3568C157.505 18.2918 157.57 18.2915 157.634 18.2265C157.764 18.0966 157.828 18.0316 157.893 17.9666C158.476 17.5112 159.058 16.9911 159.641 16.5357C160.288 16.0153 160.935 15.4303 161.582 14.9099C163.589 13.2837 165.272 11.9824 166.891 10.94L167.215 10.6798C169.223 9.37696 171.425 7.87916 173.958 7.47888C174.282 7.41264 174.672 7.41074 175.062 7.40884C178.961 7.38982 182.42 10.3471 183.348 14.0925C184.968 13.2441 186.458 12.3317 187.884 11.4842C189.957 10.181 191.774 9.59023 193.528 9.58167C194.893 9.57502 196.129 9.95691 197.302 10.6624C199.584 12.0737 200.96 14.4592 201.102 16.98C203.89 15.544 206.481 13.8504 209.136 12.0917C210.885 10.9194 212.829 9.74614 215.038 9.73537C215.948 9.73093 216.924 9.92014 217.836 10.3036C219.464 11.0069 220.835 12.2933 221.622 13.9705L226.939 11.423C227.198 11.2924 227.393 11.2268 227.587 11.0966C229.078 10.3781 230.699 9.59432 232.517 9.39149C232.712 9.39054 232.972 9.38927 233.167 9.38832C235.442 9.37723 237.591 10.3366 239.159 12.1392C240.401 13.5556 241.124 15.2977 241.263 17.0427C244.373 15.2172 247.418 13.2627 250.332 11.1796C250.72 10.9191 251.044 10.6589 251.432 10.3337C253.051 9.09737 254.928 7.66581 257.333 7.65408C257.398 7.65376 257.463 7.65345 257.593 7.65281C261.492 7.7631 264.626 10.7866 264.84 14.6648C264.908 15.311 264.846 15.8932 264.719 16.4757C266.674 17.63 268.048 19.6276 268.319 21.8892C268.32 21.9538 268.32 22.0185 268.32 22.0831C268.904 21.757 269.422 21.4312 269.94 21.1054C270.134 20.9751 270.329 20.8449 270.523 20.7146L270.588 20.6497C270.652 20.5847 270.782 20.5194 270.846 20.3898C270.976 20.2598 271.105 20.1299 271.235 20.0646C271.687 19.6098 272.14 19.155 272.592 18.6356C272.721 18.441 272.916 18.3107 273.045 18.1161L273.238 17.8566C273.432 17.5324 273.69 17.1432 273.948 16.6893C274.979 14.9386 276.858 13.8303 278.937 13.8202C279.912 13.8154 280.953 14.069 281.865 14.5171C283.168 15.222 284.149 16.381 284.546 17.9307C285.008 19.4802 284.822 21.1621 284.049 22.5236C282.115 25.7011 279.529 28.4939 276.291 30.7726C273.376 32.7911 269.939 34.2303 266.563 34.8286C265.135 35.0942 263.511 35.3608 261.887 35.3687C261.497 35.3706 261.042 35.3728 260.652 35.3101C257.791 35.0654 255.379 33.3961 254.262 30.9447C254.197 30.945 254.197 30.945 254.132 30.9453C252.118 30.9552 250.164 30.1242 248.793 28.7085C248.205 28.1295 247.747 27.4851 247.418 26.7755C245.345 27.9494 243.271 29.1233 241.197 30.1679C239.446 31.0816 237.631 31.931 235.88 32.7154C235.621 32.846 235.362 32.9765 235.102 33.0425C233.546 33.7613 231.86 34.5453 230.041 34.5542C229.456 34.5571 228.871 34.4953 228.285 34.3042C225.097 33.4792 222.742 30.3873 222.792 27.1543C222.79 26.7664 222.853 26.3781 222.916 25.9899C222.851 25.9902 222.851 26.0549 222.786 26.0552C221.036 26.9042 219.221 27.8183 217.405 28.603C216.497 28.9953 215.523 29.194 214.549 29.1988C212.144 29.2105 209.864 27.9932 208.424 25.9959C206.48 27.0399 204.341 28.0848 202.006 29.066C199.218 30.2434 196.752 31.0313 193.698 31.1108C193.568 31.1115 193.438 31.1121 193.373 31.1124C191.619 31.121 188.368 30.8136 186.409 28.8188C185.625 28.0468 185.166 27.1439 184.901 26.1107C182.308 27.3518 179.649 28.4639 176.989 29.4467C175.627 29.9705 174.393 30.1705 173.289 30.1759C171.469 30.1848 169.842 29.5462 168.536 28.3241C167.687 27.5524 167.098 26.5854 166.702 25.4882C165.667 26.3338 164.631 27.1794 163.596 28.0249C161.265 29.782 158.608 31.282 155.495 32.5903C153.29 33.5062 150.76 34.4883 147.966 34.502C147.836 34.5026 147.641 34.5036 147.511 34.5042C145.042 34.4516 142.636 34.14 140.294 33.6342C138.343 33.2558 136.714 32.4233 135.539 31.3299C134.631 31.6576 133.722 31.856 132.877 31.8601C131.772 31.8655 130.601 31.5479 129.559 30.9711C128.516 30.3943 127.602 29.5582 126.948 28.5916C124.227 30.4152 121.569 31.7213 118.779 32.64C116.574 33.362 114.173 34.0849 111.833 34.0963C109.559 34.1074 107.736 33.4698 106.365 32.1187C105.451 31.218 104.796 30.1867 104.465 29.0246C102.718 30.3908 101.099 31.6272 99.6094 32.6689C96.436 34.8826 92.6128 37.0995 88.4539 37.1198C86.3745 37.13 84.4856 36.234 83.3084 34.6881C82.3273 33.3998 81.8646 31.7856 82.0513 30.1037C78.6174 32.1894 75.6361 33.8203 72.7832 35.1273C70.3192 36.2385 67.66 37.2859 64.8008 37.2999C64.6708 37.3005 64.5408 37.3011 64.3459 37.3021C61.0312 37.1889 58.3571 35.1977 57.3685 32.3577C55.0383 34.2441 52.7709 35.6775 50.4366 36.7234C48.6858 37.5078 47.1294 38.1619 45.637 38.6218L45.2478 38.753C43.951 39.3412 42.264 39.8667 40.6394 39.8746Z" fill="white"/>
<path d="M121.301 3.46853C122.796 3.46124 124.358 3.97085 125.534 5.19356C128.211 7.83134 127.968 11.3885 125.772 14.1794C124.352 15.9966 122.931 17.8139 121.51 19.6312C121.639 19.5012 121.834 19.4356 121.963 19.3057C122.287 19.1101 122.546 18.8503 122.805 18.655C122.87 18.5901 123.452 18.1346 123.582 18.0047C125.135 16.704 126.688 15.274 128.11 13.8447C129.016 12.9998 129.856 12.1552 130.762 11.2456C131.667 10.336 132.636 9.1675 133.803 8.57991C134.646 8.12322 135.489 7.92514 136.399 7.9207C138.089 7.91246 139.652 8.68069 140.764 10.0977C142.072 11.7723 142.081 13.7766 141.311 15.6553C141.57 15.4601 141.829 15.3295 142.153 15.134C144.096 13.896 146.105 12.7225 148.049 11.4845C148.373 11.289 148.761 11.0285 149.15 10.8326C149.928 10.4409 150.772 10.2428 151.617 10.2387C153.761 10.2282 155.847 11.5112 156.508 13.7708C156.905 15.1913 156.652 16.6149 156.138 17.9752C155.624 19.2061 155.045 20.3727 154.336 21.54C154.66 21.3444 155.049 21.1486 155.373 20.953C156.086 20.497 156.798 20.0409 157.445 19.5205C157.64 19.3903 157.769 19.2603 157.963 19.1301C158.028 19.0651 158.093 19.0648 158.093 19.0648C158.093 19.0648 157.575 19.4552 157.64 19.4549C157.9 19.4537 158.287 18.9345 158.481 18.7396C159.711 17.6991 160.876 16.659 162.106 15.6832C163.789 14.3172 165.536 12.9509 167.35 11.7783C169.358 10.4108 171.625 8.84801 174.028 8.51301C174.352 8.44678 174.677 8.44519 175.002 8.44361C179.031 8.42395 182.297 11.8347 182.575 15.648C184.585 14.6037 186.464 13.4954 188.408 12.3221C190.027 11.3444 191.778 10.56 193.533 10.5515C194.637 10.5461 195.743 10.7993 196.786 11.5054C199.198 12.9807 200.577 15.8188 200.07 18.6014C200.395 18.4705 200.654 18.3399 200.978 18.1444C204.025 16.6425 206.875 14.7536 209.725 12.8647C211.474 11.6924 213.159 10.7144 215.108 10.7048C215.888 10.701 216.668 10.8265 217.515 11.2103C219.273 11.9776 220.58 13.523 221.109 15.3307C221.174 15.2657 221.304 15.2651 221.368 15.2001C223.378 14.2205 225.388 13.3055 227.398 12.3259C229.084 11.5418 230.768 10.5638 232.652 10.4253C232.847 10.4244 233.042 10.4234 233.237 10.4225C237.656 10.4009 240.926 14.7815 240.296 18.8578C243.99 16.7708 247.489 14.5555 250.921 12.1465C252.864 10.7793 254.739 8.83052 257.338 8.81784C257.403 8.81752 257.468 8.8172 257.533 8.81689C260.913 8.92971 263.655 11.5025 263.866 14.8635C263.935 15.7037 263.809 16.4802 263.552 17.128C265.571 18.0233 267.075 19.9556 267.411 22.2169C267.479 22.7984 267.481 23.3156 267.419 23.7685C267.484 23.7682 267.548 23.7032 267.613 23.7029C267.808 23.6373 267.937 23.572 268.067 23.5068C268.91 23.1147 269.752 22.5934 270.529 22.0723C270.789 21.9418 270.983 21.7469 271.242 21.5516C271.306 21.4867 271.759 21.0965 271.954 20.9663C272.665 20.3162 273.247 19.6022 273.893 18.8879C273.957 18.7582 274.022 18.6933 274.086 18.5636C274.345 18.1745 274.603 17.7853 274.861 17.3961C275.763 15.84 277.384 15.0562 279.073 15.048C279.918 15.0438 280.764 15.2337 281.546 15.6825C283.891 16.8995 284.621 20.1286 283.333 22.3332C281.463 25.5104 278.877 28.1092 275.833 30.2576C273.113 32.1459 269.806 33.5844 266.495 34.1824C265.001 34.4483 263.508 34.7142 262.013 34.7215C261.623 34.7234 261.234 34.7253 260.843 34.6626C258.178 34.4816 255.896 32.8117 255.038 30.2944C254.779 30.2956 254.519 30.3616 254.259 30.3628C252.569 30.3711 250.877 29.7328 249.636 28.4458C248.852 27.6091 248.328 26.7065 248.128 25.7376C245.796 27.1714 243.398 28.4762 240.934 29.7166C239.184 30.6303 237.433 31.4147 235.618 32.2641C233.802 33.0488 232.117 34.0268 230.168 34.0364C229.713 34.0386 229.193 33.9765 228.672 33.8497C225.94 33.1518 223.847 30.5112 223.899 27.6661C223.893 26.5024 224.278 25.466 224.858 24.558L224.793 24.5583C222.265 25.7991 219.737 27.1045 217.143 28.1517C216.299 28.4791 215.521 28.6768 214.676 28.6809C212.206 28.693 209.99 27.2167 208.875 25.1532C206.607 26.4574 204.208 27.6329 201.744 28.6147C199.085 29.7268 196.749 30.5141 193.825 30.593C193.695 30.5936 193.63 30.5939 193.5 30.5946C189.991 30.6117 185.827 29.4036 185.805 25.0718C182.823 26.5087 179.84 27.8164 176.727 28.9954C175.624 29.3887 174.456 29.653 173.351 29.6584C171.921 29.6653 170.49 29.2197 169.249 28.062C168.139 26.9683 167.483 25.6138 167.345 24.1274C165.922 25.2981 164.498 26.5335 163.009 27.6399C160.549 29.5269 157.956 30.8972 155.167 32.0746C152.833 33.0558 150.562 33.9074 147.963 33.9201C147.833 33.9207 147.703 33.9214 147.508 33.9223C145.169 33.8691 142.763 33.5575 140.421 33.1164C138.6 32.7373 136.841 31.9054 135.73 30.6177C134.822 31.0101 133.849 31.2735 132.809 31.2785C131.899 31.283 130.924 31.0938 129.946 30.5166C128.773 29.8758 127.793 28.7815 127.202 27.5559C124.482 29.4442 121.631 31.0098 118.387 32.1247C116.441 32.7808 114.04 33.5037 111.765 33.5148C110.011 33.5233 108.319 33.079 107.013 31.7923C105.838 30.6342 105.181 29.1504 105.043 27.5993C103.102 29.2252 101.03 30.787 98.9572 32.2195C95.8484 34.3683 92.2195 36.4549 88.3856 36.4736L88.3206 36.4739C84.5516 36.4923 82.1959 33.1418 83.1533 29.5811C83.281 29.1279 83.4091 28.7393 83.6019 28.2858C79.9739 30.5664 76.2157 32.783 72.3252 34.5477C69.9909 35.5935 67.3967 36.6407 64.7324 36.6537C64.6025 36.6543 64.4725 36.6549 64.3425 36.6556C60.8329 36.5434 58.2216 34.0992 57.9459 30.8678C55.5517 32.9485 52.8962 34.7718 50.0436 36.1434C48.4875 36.8622 46.9311 37.5163 45.3091 38.0415C43.817 38.566 42.0653 39.1564 40.4408 39.1644C40.4408 39.1644 40.4408 39.1644 40.3758 39.1647C37.6466 39.178 34.7782 37.317 32.8849 35.5159C31.1875 33.9078 30.2673 31.7787 30.5821 29.7082C28.5071 30.6235 26.4318 31.4741 24.3565 32.3248C22.0862 33.1764 19.5579 34.4171 17.0886 34.4292C15.9189 34.4349 14.748 34.182 13.7048 33.4759C12.2055 32.5134 11.3541 31.1598 11.0219 29.6743C10.2431 29.8721 9.46391 30.0052 8.7491 30.0087C8.29423 30.0109 7.90402 29.9482 7.44883 29.8857C6.21133 29.3099 4.90791 28.5404 3.99216 27.3164C2.61903 25.5774 2.47992 23.7031 2.79442 21.568C3.36223 18.0739 3.99533 14.6441 4.56314 11.15C4.942 8.88521 7.27536 7.64539 9.41977 7.63493C9.80966 7.63303 10.1999 7.69578 10.5251 7.75885C13.2575 8.39206 14.3761 11.2314 13.9332 13.6904C13.6165 15.373 13.3644 16.9906 13.0477 18.6732C13.2423 18.6076 13.372 18.5423 13.5666 18.4767C13.6963 18.4114 14.0852 18.2155 14.2799 18.1499C14.6688 17.9541 15.1227 17.7579 15.5117 17.562C16.5489 17.0397 17.5211 16.5177 18.493 15.9311C19.3352 15.4098 20.1771 14.8238 20.9541 14.2381C21.0837 14.1728 21.1484 14.1078 21.2131 14.0429C21.3424 13.9129 21.5367 13.7827 21.666 13.6527C21.925 13.4575 22.1837 13.1976 22.3777 13.0027C23.9937 11.2492 25.6101 9.56025 27.2261 7.80669C28.1311 6.83246 29.2986 6.37418 30.5333 6.36816C31.8329 6.36182 33.1351 6.8727 34.1142 7.77309C36.2031 9.70254 35.6975 12.6145 34.1477 14.6263C32.9852 16.119 31.7572 17.4828 30.3989 18.7825C31.3714 18.3252 32.3436 17.8032 33.2512 17.3462C35.3902 16.2366 37.464 15.0627 39.4721 13.7598C41.3509 12.5869 43.0351 11.4795 45.111 10.7582C46.2138 10.3649 47.4472 10.1003 48.6169 10.0946C50.0465 10.0876 51.413 10.4689 52.5231 11.5626C54.7432 13.75 54.1738 16.9208 52.2994 18.9989C49.6497 21.986 46.8046 24.9093 44.0246 27.8323C44.1543 27.767 44.2842 27.7664 44.3489 27.7014C44.5435 27.6358 44.6732 27.5705 44.6732 27.5705C44.7381 27.5702 44.8028 27.5053 44.8678 27.5049C45.7107 27.1129 46.5535 26.7209 47.3311 26.2645C48.1737 25.8078 48.9509 25.2868 49.7282 24.7657C49.9225 24.6355 50.0519 24.5055 50.2462 24.3753C50.3108 24.3103 50.3758 24.31 50.4405 24.245C50.6345 24.0501 50.8285 23.8552 51.0228 23.725C53.9997 21.1889 56.6498 18.2665 59.4307 15.5375C61.3061 13.6533 63.3729 11.0571 66.0337 10.3329C66.5529 10.201 67.0724 10.1339 67.5923 10.1313C70.9714 10.1148 74.1044 12.9444 74.0568 16.5006C74.0012 18.4405 73.1 20.1906 72.1985 21.876C71.812 22.5891 71.4256 23.3022 71.0392 24.0152C71.9464 23.4936 72.8539 23.0366 73.7612 22.5149C78.038 20.0372 82.2489 17.3658 86.3289 14.5011C87.3005 13.8498 88.2717 13.1339 89.243 12.4179C90.02 11.8322 90.8609 11.0523 91.7035 10.5956C92.6757 10.0736 93.7142 9.80994 94.7539 9.80486C97.5481 9.79123 100.221 11.5885 101.015 14.4941C101.346 15.7856 101.287 16.9497 100.903 18.0507C101.42 17.5956 102.003 17.1401 102.52 16.6204C105.108 14.3448 107.632 12.0696 110.22 9.85873C112.356 8.03798 114.556 6.08762 116.953 4.58887C118.444 3.93505 119.937 3.47518 121.301 3.46853ZM88.7269 26.5152L88.6619 26.5155C88.6619 26.5155 88.6619 26.5155 88.7269 26.5152ZM121.292 1.52894C119.537 1.53749 117.785 2.06328 116.165 3.041C113.768 4.47509 111.697 6.29552 109.692 8.05098L109.174 8.50609C107.75 9.74147 106.327 11.0415 104.903 12.2769C104.256 12.7973 103.674 13.382 103.027 13.9024C101.97 10.4162 98.644 7.97556 94.94 7.99363C93.5754 8.00028 92.2123 8.33021 90.9811 9.04741C90.2682 9.43882 89.6209 9.95921 89.0383 10.4146C88.7793 10.6099 88.5203 10.8051 88.3263 11C87.4197 11.651 86.4485 12.3669 85.4769 13.0182C82.3035 15.2319 78.9998 17.3816 75.7602 19.3371C76.016 18.4953 76.2065 17.5892 76.2021 16.6841C76.2567 14.5502 75.4018 12.4854 73.8344 10.8767C72.2019 9.26832 69.9878 8.3093 67.7784 8.32008C67.0636 8.32357 66.3491 8.39171 65.7003 8.58884C63.0395 9.31302 61.0351 11.3917 59.2248 13.2756C58.9014 13.6004 58.5784 13.9899 58.1901 14.3151C57.4141 15.0947 56.5734 15.9393 55.7974 16.719C56.3062 14.4536 55.7097 12.0643 54.012 10.3915C52.6407 9.04047 50.8178 8.33816 48.7384 8.3483C47.4387 8.35464 46.0753 8.61991 44.5833 9.14442C42.5076 9.9304 40.8228 10.9084 39.0737 12.0161L38.6201 12.2769C38.1665 12.5378 37.7128 12.7986 37.2592 13.0594C37.8983 10.8581 37.6261 8.33785 35.5375 6.47306C34.2319 5.25099 32.4092 4.61333 30.6547 4.62189C28.8352 4.63076 27.1492 5.35019 25.9208 6.64927L22.0421 10.8061L21.1367 11.7157L21.0074 11.8456C20.8781 11.9755 20.6837 12.1058 20.4897 12.3007C20.3604 12.4307 20.2308 12.4959 20.1014 12.6259L19.9071 12.7561L19.7128 12.8864C19.0005 13.4071 18.2882 13.9278 17.5753 14.3192C16.9924 14.71 16.3441 15.0364 15.6959 15.3629L15.9492 14.0039C16.518 10.7037 15.0038 6.70253 11.0355 5.81672C10.515 5.68995 9.99483 5.62783 9.47498 5.63037C6.55141 5.77394 3.24584 7.53573 2.6774 10.9005C2.48813 12.0653 2.29886 13.23 2.0443 14.3303C1.66544 16.5951 1.22192 18.9248 0.84338 21.2542C0.527615 23.1308 0.34623 25.9118 2.37329 28.4881C3.55054 30.034 5.24512 31.0603 7.13149 31.439C7.65198 31.5658 8.23713 31.6276 8.88695 31.6244C9.21186 31.6228 9.60175 31.6209 9.92635 31.5547C10.5825 32.8445 11.5626 33.9389 12.8663 34.773C14.1701 35.6072 15.6668 36.0525 17.2914 36.0446C19.7607 36.0325 22.1603 35.051 24.236 34.265C24.5602 34.1341 24.8845 34.0032 25.2088 33.8723C26.4413 33.4137 27.7384 32.8902 29.0352 32.302C29.4976 33.8514 30.3496 35.3343 31.7206 36.6207C33.0265 37.9074 36.4851 40.8647 40.579 40.8447L40.6439 40.8444C42.3985 40.8358 44.1501 40.2454 45.7072 39.7206L46.0964 39.5894C47.6535 39.0645 49.2749 38.4101 51.0256 37.6257C53.0357 36.7107 55.0441 35.4725 57.116 33.9107C58.4932 36.4901 61.231 38.2224 64.4807 38.3359C64.6107 38.3353 64.8056 38.3343 64.9356 38.3337C67.9248 38.3191 70.7136 37.2064 73.3075 36.0946C75.7715 34.9834 78.3642 33.613 81.2152 31.9181C81.3511 33.1459 81.877 34.3718 82.6618 35.4024C84.035 37.1414 86.1194 38.1657 88.5241 38.2186L88.5891 38.2183C93.0078 38.1968 96.9604 35.8499 100.263 33.5709C101.494 32.7244 102.789 31.7482 104.148 30.7071C104.542 31.5457 105.131 32.3187 105.784 32.9621C107.351 34.5061 109.369 35.2075 111.903 35.1951C114.373 35.1831 116.839 34.4598 119.174 33.6726C121.769 32.8194 124.298 31.5787 126.759 30.0149C127.413 30.7876 128.261 31.4947 129.108 31.9431C130.346 32.5836 131.583 32.9655 132.882 32.9592C133.662 32.9554 134.441 32.8223 135.285 32.5595C136.524 33.588 138.153 34.3559 140.039 34.7346C142.446 35.2401 144.917 35.5513 147.451 35.6036C147.646 35.6027 147.776 35.602 147.971 35.6011C150.961 35.5865 153.62 34.6037 155.89 33.6228C159.068 32.3142 161.789 30.7492 164.185 28.9272C164.897 28.3419 165.609 27.8211 166.321 27.2358C166.714 27.9451 167.238 28.6537 167.825 29.2327C169.327 30.6478 171.15 31.3501 173.229 31.34C174.464 31.334 175.827 31.0687 177.254 30.5445C179.59 29.6926 181.924 28.7114 184.258 27.6655C184.587 28.4398 185.046 29.1487 185.633 29.7278C187.919 31.9795 191.429 32.2857 193.314 32.2765C193.444 32.2759 193.574 32.2752 193.704 32.2746C196.887 32.1944 199.483 31.3412 202.336 30.1635C204.411 29.2482 206.357 28.3982 208.106 27.4199C209.74 29.2223 212.085 30.3746 214.489 30.3629C215.594 30.3575 216.632 30.1584 217.67 29.7008C219.032 29.1123 220.393 28.4591 221.69 27.8062C221.837 31.3615 224.387 34.5171 227.901 35.4698C228.551 35.6606 229.201 35.7221 229.916 35.7186C231.996 35.7085 233.811 34.8591 235.432 34.14C235.691 34.0094 235.951 33.8788 236.21 33.8129C238.026 33.0282 239.841 32.1142 241.592 31.2651C243.407 30.3511 245.221 29.3724 246.971 28.3294C247.233 28.7807 247.625 29.2314 248.017 29.6174C249.454 31.0975 251.473 31.9928 253.553 32.112C254.864 34.5624 257.472 36.2307 260.462 36.4748C260.852 36.5375 261.307 36.5353 261.762 36.5331C263.452 36.5248 265.205 36.2577 266.633 35.9921C270.139 35.3284 273.771 33.8237 276.75 31.7402C280.118 29.3962 282.833 26.5381 284.832 23.231C285.734 21.6749 285.984 19.734 285.455 17.9263C284.927 16.1832 283.815 14.7016 282.252 13.9333C281.209 13.3565 280.038 13.1036 278.869 13.1093C276.464 13.1211 274.261 14.3602 273.036 16.4352C272.779 16.889 272.585 17.2132 272.327 17.5377C272.262 17.6027 272.263 17.6674 272.198 17.7323C272.069 17.9269 271.875 18.0572 271.746 18.2518C271.293 18.7712 270.905 19.2257 270.453 19.6158C270.388 19.6808 270.259 19.8108 270.129 19.876C270 20.006 269.935 20.0709 269.805 20.1362C269.611 20.2665 269.417 20.3967 269.222 20.527C269.093 20.5923 268.963 20.7222 268.769 20.7878C268.24 18.9154 267.062 17.3048 265.497 16.2133C265.56 15.7604 265.558 15.3079 265.555 14.7906C265.274 10.4601 261.748 7.05065 257.329 6.87825C257.264 6.87856 257.134 6.8792 257.069 6.87951C254.339 6.89283 252.332 8.38967 250.584 9.75595C250.196 10.0165 249.872 10.2767 249.548 10.5369C247.088 12.2945 244.432 13.9885 241.775 15.6178C241.378 14.1327 240.722 12.7782 239.676 11.6195C237.912 9.6238 235.567 8.47145 232.968 8.48413C232.708 8.4854 232.448 8.48667 232.188 8.48794C230.174 8.69172 228.489 9.54045 226.933 10.2592C226.739 10.3895 226.479 10.4554 226.285 10.5857L221.811 12.7411C220.894 11.2585 219.589 10.1011 218.026 9.46218C216.984 9.01468 215.944 8.82579 214.839 8.83118C212.305 8.84354 210.231 10.0821 208.353 11.3197C206.086 12.8178 203.883 14.251 201.615 15.5551C201.084 13.2948 199.644 11.2329 197.558 9.88529C196.19 9.05146 194.758 8.67051 193.264 8.6778C191.314 8.68731 189.303 9.34367 187.1 10.7122C185.999 11.3641 184.832 12.081 183.666 12.7332C182.284 9.11929 178.762 6.48563 174.798 6.50497C174.408 6.50687 174.018 6.50877 173.563 6.57564C170.836 6.97687 168.504 8.53996 166.431 9.90781L166.108 10.168C164.488 11.275 162.74 12.512 160.734 14.2028C160.086 14.7232 159.439 15.3083 158.792 15.8286C158.662 15.8939 158.598 16.0236 158.468 16.0888C158.594 15.1184 158.459 14.1493 158.26 13.3097C157.401 10.3398 154.662 8.34886 151.478 8.36439C150.308 8.3701 149.139 8.63441 148.103 9.22136C147.714 9.41722 147.39 9.61277 147.066 9.80831L146.936 9.8736L143.956 11.6985L143.567 11.959C143.367 10.8608 142.907 9.8286 142.188 8.92694C140.944 7.05803 138.794 5.96938 136.455 5.9808C135.285 5.9865 134.052 6.31579 132.95 6.8384C131.783 7.49064 130.878 8.40022 130.037 9.24483C129.843 9.43974 129.649 9.63465 129.455 9.82956L129.391 9.89453C129.51 7.63104 128.654 5.50161 126.891 3.76453C125.389 2.2848 123.436 1.51848 121.292 1.52894Z" fill="black"/>
</svg>
